<?xml version="1.0" encoding="UTF-8"?>
<svg id="ICON" xmlns="http://www.w3.org/2000/svg" xmlns:xlink="http://www.w3.org/1999/xlink" viewBox="0 0 1968.41 1606.11">
  <defs>
    <style>
      .cls-1 {
        fill: #3d9084;
      }

      .cls-2 {
        fill: #f2336c;
      }

      .cls-3 {
        fill: url(#linear-gradient-5);
      }

      .cls-4 {
        fill: url(#linear-gradient-4);
      }

      .cls-5 {
        fill: url(#linear-gradient-3);
      }

      .cls-6 {
        fill: url(#linear-gradient-2);
      }

      .cls-7 {
        fill: #f1f4fa;
      }

      .cls-8 {
        fill: #864f9e;
      }

      .cls-9 {
        fill: url(#linear-gradient);
      }

      .cls-10 {
        fill: #ffda9d;
      }

      .cls-11 {
        fill: #ecf2fe;
      }

      .cls-12 {
        fill: #fefeff;
      }

      .cls-13 {
        fill: #ff5f57;
      }

      .cls-14 {
        fill: #0c657a;
      }

      .cls-15 {
        fill: #09546c;
      }

      .cls-16 {
        fill: #7fb3cb;
      }

      .cls-17 {
        fill: #fdc630;
      }

      .cls-18 {
        fill: #9c8ac1;
      }

      .cls-19 {
        fill: #f4ca8c;
      }

      .cls-20 {
        fill: #2b3f66;
      }

      .cls-21 {
        fill: #fff;
      }

      .cls-22 {
        fill: #f3ecf0;
      }

      .cls-23 {
        fill: #b8386b;
      }

      .cls-24 {
        fill: #7eb2ca;
      }

      .cls-25 {
        fill: #f4b1aa;
      }

      .cls-26 {
        fill: #0b6f7f;
      }

      .cls-27 {
        opacity: .2;
      }

      .cls-27, .cls-28, .cls-29 {
        fill: #333;
      }

      .cls-28, .cls-30 {
        opacity: .15;
      }

      .cls-31 {
        fill: #68a1b5;
      }

      .cls-32 {
        fill: #e17895;
      }

      .cls-33 {
        fill: #d39954;
      }

      .cls-34 {
        fill: #8de8e3;
      }

      .cls-35 {
        fill: #f7b423;
      }

      .cls-36 {
        fill: #1a2a57;
      }

      .cls-37 {
        fill: #f59da1;
      }

      .cls-38 {
        fill: #0a697f;
      }

      .cls-39 {
        fill: #3e527e;
      }

      .cls-40 {
        fill: #d8dad9;
      }

      .cls-41 {
        fill: #fcfcfc;
      }

      .cls-42 {
        fill: #ecf2fd;
      }

      .cls-43 {
        fill: #e5aa5c;
      }

      .cls-44 {
        fill: #22b28d;
      }

      .cls-45 {
        fill: #3e517e;
      }

      .cls-46 {
        fill: #074b5b;
      }

      .cls-47 {
        clip-path: url(#clippath);
      }

      .cls-48 {
        fill: #28c840;
      }

      .cls-49 {
        fill: #e5613b;
      }

      .cls-50 {
        fill: #f8aea8;
      }
    </style>
    <linearGradient id="linear-gradient" x1="1129.05" y1="1471.18" x2="1129.05" y2="1674.65" gradientUnits="userSpaceOnUse">
      <stop offset="0" stop-color="#f1f4fa"/>
      <stop offset="1" stop-color="#7fb3cc"/>
    </linearGradient>
    <linearGradient id="linear-gradient-2" x1="406.95" y1="1461.05" x2="636.69" y2="1461.05" gradientUnits="userSpaceOnUse">
      <stop offset="0" stop-color="#f1f4fa"/>
      <stop offset="1" stop-color="#abc9e1"/>
    </linearGradient>
    <linearGradient id="linear-gradient-3" x1="778.65" y1="1136.66" x2="992.59" y2="1136.66" gradientUnits="userSpaceOnUse">
      <stop offset="0" stop-color="#d1acda"/>
      <stop offset="1" stop-color="#9761a9"/>
    </linearGradient>
    <clipPath id="clippath">
      <path class="cls-12" d="M1451.36,1029.67l102.63,9.57,102.63-9.57c2.51-.23,4.6,1.9,4.32,4.4,0,0-11.48,75.58-11.48,102.64s11.47,102.55,11.47,102.55c.28,2.53-1.86,4.67-4.39,4.39,0,0-76.57-11.47-102.55-11.47s-102.55,11.47-102.55,11.47c-2.53.28-4.67-1.86-4.39-4.39,0,0,11.47-73.21,11.47-102.55s-11.48-102.64-11.48-102.64c-.28-2.5,1.81-4.63,4.32-4.4Z"/>
    </clipPath>
    <linearGradient id="linear-gradient-4" x1="1259.91" y1="873.89" x2="1259.91" y2="1125.65" xlink:href="#linear-gradient-2"/>
    <linearGradient id="linear-gradient-5" x1="1772.08" y1="1438.68" x2="1842.21" y2="1438.68" gradientUnits="userSpaceOnUse">
      <stop offset="0" stop-color="#f1f4fa"/>
      <stop offset=".26" stop-color="#edf1f8"/>
      <stop offset=".49" stop-color="#e2ebf4"/>
      <stop offset=".71" stop-color="#d0e0ee"/>
      <stop offset=".91" stop-color="#b7d0e5"/>
      <stop offset="1" stop-color="#abc9e1"/>
    </linearGradient>
  </defs>
  <g>
    <circle class="cls-8" cx="1609.67" cy="817.18" r="62.29"/>
    <path class="cls-11" d="M775.27,1035.7c-20.79-15.95-44.48-29.38-70.93-40.87-69.23-30.09-143.01-51.03-191.79-112.89-55.25-70.07-73.78-167.25-29.28-247.5,108.09-194.92,448.28-227.4,619.71-110.4,49.44,33.75,85.72,80.29,107.18,136.04,21.63,56.21,45.6,103.53,110.67,115.03,56.99,10.07,115.25-.66,172.32,7.47,152.62,21.75,251.65,204.81,131.4,326.35-44.29,44.77-102.75,69.61-153.8,104.65-54.72,37.56-104.41,82.48-147.1,133.32-40.39,48.09-75.24,106.29-133.6,134.76-77.07,37.6-179.67,12.6-236.52-50.13-64.94-71.68-63.39-179.87-90.47-267.69-17.08-55.39-46.77-96.65-87.81-128.13Z"/>
    <g>
      <ellipse class="cls-9" cx="1129.05" cy="1563.34" rx="744.78" ry="42.77"/>
      <g>
        <g>
          <path class="cls-31" d="M605.2,1304.01c-2.85,6.64-31.98,80.69-40.05,79.91l-15.66-1.5c-3.39-.33-5.98-.57-5.98-.57-3.82-8.42-6.87-17.15-9.51-26.01-23.81-79.57-21.28-172.06-7.49-253.2.81-4.71,1.84-9.94,3.14-15.5,2.82-12.09,6.74-25.68,11.67-38.66v-.02c10.21-26.93,24.69-51.21,42.19-53.9,13.52-2.09,28.85,8.75,45.42,41.28,16.91,33.19,21.82,71.54,19.2,108.7-3.83,54.83-21.41,109.17-42.92,159.46Z"/>
          <path class="cls-16" d="M549.5,1382.43c-3.39-.33-5.98-.57-5.98-.57-3.82-8.42-6.87-17.15-9.51-26.01-23.81-79.57-21.28-172.06-7.49-253.2.81-4.71,1.84-9.94,3.14-15.5l11.67-38.66v-.02c10.21-26.93,24.69-51.21,42.19-53.9,43.87,88.98-21.36,326.13-34.01,387.85Z"/>
        </g>
        <g>
          <path class="cls-44" d="M536.22,1384.46h-33c-138.34-62.77-179.46-200.27-187.74-314.91,26.81,10.69,34.2,10.69,34.2,10.69-13.8-8.05-27.59-31.44-35.84-47.43-1.38-81.74,11.9-144.46,12.29-146.3l.02-.04c317.04,173.86,210.06,497.98,210.06,497.98Z"/>
          <path class="cls-1" d="M516.29,1384.46h-13.07c-138.34-62.77-179.46-200.27-187.74-314.91,26.81,10.69,34.2,10.69,34.2,10.69-13.8-8.05-27.59-31.44-35.84-47.43-1.38-81.74,11.9-144.46,12.29-146.3l.02-.04s195.56,226.36,190.13,497.98Z"/>
        </g>
        <path class="cls-34" d="M465.29,1314.38c-25.26-25.14-60.7-60.29-68.53-95.26-6.84-30.59,45.62,10.78,50.86,16.3,13.93,14.67,24.37,32.67,30.13,52.07,2.94,9.91,10.95,50.21-9.77,29.57-.88-.88-1.78-1.77-2.69-2.68Z"/>
        <path class="cls-34" d="M496.2,1365.44l-5.31-.25c.01-.28.98-27.86-21.1-53.84l4.05-3.44c23.5,27.64,22.42,56.32,22.36,57.53Z"/>
        <path class="cls-34" d="M386.29,1261.9c-9.06-4.79-18.49-8.88-28.19-12.2-6.44-2.2-18.28-3.46-14.2,6.88,14.57,36.95,48.55,63.84,88.08,68.49,4.88.57,14.35,1.75,17.05-3.76,5.79-11.81-28.76-36.95-36.36-42.66-8.34-6.26-17.17-11.87-26.38-16.75Z"/>
        <path class="cls-34" d="M488.98,1349.4c-25.16-17.14-46.33-27.07-46.55-27.16l2.09-4.49c.21.1,21.73,10.18,47.24,27.56l-2.79,4.1Z"/>
        <path class="cls-42" d="M545.7,1359.51c1.44,1.9,2.85,3.83,4.21,5.8h28.52c85.56-73.34,51.61-157.36,51.61-157.36-57.04,30.06-59.76,101.68-59.76,101.68-14.94-62.47-46.17-71.98-46.18-71.98-1.77-.48-7.57,24.25-7.98,26.63-1.58,9.17-2.01,18.54-1.23,27.82,1.59,18.88,8.21,36.66,19.07,52.14,3.69,5.26,7.86,10.15,11.73,15.27Z"/>
        <path class="cls-6" d="M461.99,1562.7h119.67c12.79,0,23.78-9.06,26.23-21.61l28.23-144.98c3.7-19.02-10.86-36.7-30.24-36.7h-168.1c-19.38,0-33.94,17.68-30.24,36.7l28.23,144.98c2.44,12.55,13.44,21.61,26.23,21.61Z"/>
        <path class="cls-21" d="M496.93,1376.89h0c0-3.84-3.14-6.99-6.99-6.99h-46.03c-3.84,0-6.99,3.14-6.99,6.99h0c0,3.84,3.14,6.99,6.99,6.99h46.03c3.84,0,6.99-3.14,6.99-6.99Z"/>
        <path class="cls-21" d="M526.51,1376.89h0c0-3.84-3.14-6.99-6.99-6.99h-9.06c-3.84,0-6.99,3.14-6.99,6.99h0c0,3.84,3.14,6.99,6.99,6.99h9.06c3.84,0,6.99-3.14,6.99-6.99Z"/>
      </g>
      <g>
        <rect class="cls-43" x="1525.62" y="1387.2" width="52.43" height="176.14"/>
        <rect class="cls-33" x="1577.46" y="1387.2" width="32.22" height="176.14"/>
        <rect class="cls-33" x="614.23" y="1387.2" width="32.22" height="176.14"/>
        <rect class="cls-43" x="561.8" y="1387.2" width="52.43" height="176.14" transform="translate(1176.03 2950.53) rotate(180)"/>
        <rect class="cls-43" x="1657.82" y="1387.2" width="52.43" height="176.14"/>
        <rect class="cls-33" x="1709.65" y="1387.2" width="32.22" height="176.14"/>
        <rect class="cls-33" x="746.43" y="1387.2" width="32.22" height="176.14"/>
        <rect class="cls-43" x="694" y="1387.2" width="52.43" height="176.14" transform="translate(1440.43 2950.53) rotate(180)"/>
        <rect class="cls-10" x="614.23" y="1387.2" width="911.39" height="51.24"/>
        <rect class="cls-10" x="561.8" y="1361.58" width="1016.25" height="25.62"/>
        <path class="cls-10" d="M437.28,1262.67h216.71c3.71,0,6.72,3.01,6.72,6.72v12.18c0,3.71-3.01,6.72-6.72,6.72h-216.71v-25.62h0Z" transform="translate(-726.49 1824.47) rotate(-90)"/>
        <rect class="cls-28" x="561.8" y="1387.2" width="1016.25" height="10.72"/>
        <path class="cls-38" d="M1701.5,1044.01h-935.52c-22.29,0-40.37,18.07-40.37,40.37v277.2h1016.25v-277.2c0-22.29-18.07-40.37-40.37-40.37Z"/>
        <rect class="cls-38" x="618.51" y="1244.2" width="857.51" height="117.37"/>
        <path class="cls-26" d="M1247.63,1044.01h453.87c22.28,0,40.37,18.09,40.37,40.37v159.83h-507.05v-187.38c0-7.07,5.74-12.81,12.81-12.81Z"/>
        <path class="cls-15" d="M1068.25,1259.24v87.29c0,7.26-5.14,13.31-11.98,14.73-.99.21-2.02.31-3.07.31h-389.37c-8.31,0-15.04-6.74-15.04-15.04v-87.29c0-8.31,6.74-15.04,15.04-15.04h389.37c8.32,0,15.05,6.74,15.05,15.04Z"/>
        <path class="cls-26" d="M725.62,1044.01h506.52v159.83c0,22.28-18.09,40.37-40.37,40.37h-453.34c-7.07,0-12.81-5.74-12.81-12.81v-187.38h0Z" transform="translate(1957.76 2288.21) rotate(180)"/>
        <path class="cls-14" d="M618.51,1163.77h126.47c5.59,0,10.13,4.54,10.13,10.13v70.3h-136.6v-80.43h0Z"/>
        <rect class="cls-15" x="561.8" y="1163.77" width="84.61" height="197.81" rx="13.55" ry="13.55" transform="translate(1208.21 2525.34) rotate(180)"/>
        <rect class="cls-19" x="1609.67" y="1387.2" width="99.98" height="51.24"/>
        <polygon class="cls-27" points="1709.65 1438.44 1709.65 1449.68 1657.82 1486.68 1657.82 1438.44 1709.65 1438.44"/>
        <polygon class="cls-27" points="746.13 1438.44 746.13 1449.68 694.3 1486.68 694.3 1438.44 746.13 1438.44"/>
        <rect class="cls-28" x="1578.05" y="1387.2" width="163.82" height="10.72"/>
        <g>
          <path class="cls-5" d="M782.99,1029.67l102.63,9.57,102.63-9.57c2.51-.23,4.6,1.9,4.32,4.4,0,0-11.48,75.58-11.48,102.64s11.47,102.55,11.47,102.55c.28,2.53-1.86,4.67-4.39,4.39,0,0-76.57-11.47-102.55-11.47s-102.55,11.47-102.55,11.47c-2.53.28-4.67-1.86-4.39-4.39,0,0,11.47-73.21,11.47-102.55s-11.48-102.64-11.48-102.64c-.28-2.5,1.81-4.63,4.32-4.4Z"/>
          <path class="cls-28" d="M988.17,1240.64s-76.57-17.49-102.55-17.49-102.55,17.49-102.55,17.49c-1.39.16-2.65-6.45-3.47-7.42-.57,3.8-.92,6.04-.92,6.04-.28,2.53,1.86,4.67,4.39,4.39,0,0,76.57-11.47,102.55-11.47s102.55,11.47,102.55,11.47c2.53.28,4.67-1.86,4.39-4.39,0,0-.34-2.26-.9-6.07-.82.99-2.08,7.61-3.49,7.45Z"/>
        </g>
        <g>
          <g>
            <path class="cls-12" d="M1451.36,1029.67l102.63,9.57,102.63-9.57c2.51-.23,4.6,1.9,4.32,4.4,0,0-11.48,75.58-11.48,102.64s11.47,102.55,11.47,102.55c.28,2.53-1.86,4.67-4.39,4.39,0,0-76.57-11.47-102.55-11.47s-102.55,11.47-102.55,11.47c-2.53.28-4.67-1.86-4.39-4.39,0,0,11.47-73.21,11.47-102.55s-11.48-102.64-11.48-102.64c-.28-2.5,1.81-4.63,4.32-4.4Z"/>
            <g class="cls-47">
              <g>
                <path class="cls-17" d="M1595.55,1240.01c11.16.16,22.21.09,33.36-.27,6.12-69.2,6.12-138.28,0-207.49-11.11-.97-22.26-1.43-33.41-1.42,3.16,69.74,3.18,139.44.05,209.18Z"/>
                <path class="cls-17" d="M1570.92,1239.03c1.21-69.14,1.2-138.28-.03-207.43-6.75.41-10.13.68-16.9,1.35-6.77-.67-10.15-.94-16.9-1.35-1.22,69.14-1.23,138.28-.03,207.43,6.66-.32,12.52-.61,16.92-.61s10.27.28,16.92.61Z"/>
                <path class="cls-17" d="M1512.49,1030.84c-11.15-.01-22.3.45-33.41,1.42-6.12,69.2-6.12,138.28,0,207.49,11.15.37,22.2.43,33.36.27-3.12-69.74-3.1-139.44.05-209.18Z"/>
              </g>
            </g>
          </g>
          <g class="cls-30">
            <path class="cls-29" d="M1656.54,1240.64s-76.57-17.49-102.55-17.49-102.55,17.49-102.55,17.49c-1.39.16-2.65-6.45-3.47-7.42-.57,3.8-.92,6.04-.92,6.04-.28,2.53,1.86,4.67,4.39,4.39,0,0,76.57-11.47,102.55-11.47s102.55,11.47,102.55,11.47c2.53.28,4.67-1.86,4.39-4.39,0,0-.34-2.26-.9-6.07-.82.99-2.08,7.61-3.49,7.45Z"/>
          </g>
        </g>
        <rect class="cls-15" x="1493.45" y="1163.77" width="84.61" height="197.81" rx="13.55" ry="13.55"/>
        <path class="cls-15" d="M1491.07,1259.24v87.29c0,8.31-6.74,15.04-15.05,15.04h-389.89c-1.05,0-2.07-.11-3.07-.31-6.83-1.42-11.97-7.47-11.97-14.73v-87.29c0-8.31,6.74-15.04,15.04-15.04h389.89c8.32,0,15.05,6.74,15.05,15.04Z"/>
        <path class="cls-19" d="M1590.06,1163.77h158.48c7.35,0,13.33,5.97,13.33,13.33v210.1h-171.8v-223.43h0Z"/>
        <path class="cls-10" d="M1479.15,1262.67h216.71c3.71,0,6.72,3.01,6.72,6.72v12.18c0,3.71-3.01,6.72-6.72,6.72h-216.71v-25.62h0Z" transform="translate(315.38 2866.34) rotate(-90)"/>
        <path class="cls-46" d="M1353.43,1244.2l-177.9,117.06h-92.48c-6.83-1.42-11.97-7.47-11.97-14.73v-87.29c0-8.31,6.74-15.04,15.04-15.04h267.31Z"/>
        <path class="cls-46" d="M1068.25,1259.24v87.29c0,7.26-5.14,13.31-11.98,14.73h-54.57v-117.06h51.5c8.32,0,15.05,6.74,15.05,15.04Z"/>
      </g>
      <g>
        <path class="cls-50" d="M821.47,1436.21s-34.65,27.62-33.14,35.66c1.51,8.03,9.95,6.4,5.93,22.47-4.02,16.07-28.15,29.18-34.17,47.26-6.03,18.08-44.66,14.89-36.7,1.15,9.01-15.55,36.61-64.98,64.94-123.1l33.14,16.57Z"/>
        <path class="cls-32" d="M995.11,1481.4s6.59,24.61,6.59,36.17c0,10.78-19.04,44.24-24.69,50.27-5.65,6.03-2.68,17.18,1.84,17.94s19.96,2.64,27.49-5.65c7.53-8.29,30.19-48.48,27.93-56.39-2.26-7.91-9.54-22.35-7.57-40.36l-31.6-1.98Z"/>
        <path class="cls-39" d="M1034.28,1523.73s-34.5,55.55-50.03,52.12c-7.97-1.76.29-18.69.29-18.69,0,0-16.74,23.34-19.75,29.34-7.92,15.75,23.86,6.8,25.74,6.05s30.13-12.05,38.04-37.29c0,0,5.33,22.6,5.87,34.65l5.43.38s-5.08-39.35-3.09-43.06c7.24-13.56-2.49-23.5-2.49-23.5Z"/>
        <path class="cls-39" d="M788.33,1471.87s-30.04,65.29-47.69,63.35c-9.06-.99-1.27-21.01-1.27-21.01,0,0-15.59,26.17-18.22,33.19-6.89,18.43,26.46,6.66,28.46,5.59,2-1.06,29.96-15.35,38.52-43.69,0,0,11.29,19.96,13.33,33.27l4-2.58s-11.73-38.51-9.98-42.87c6.4-15.92-7.16-25.26-7.16-25.26Z"/>
        <path class="cls-20" d="M1025.26,1218.2s-6.8,9.12-9.36,18.85c-4.21,15.93,28.31,102.27,10.82,246.33,0,0-9.7,8.96-31.15,2.31,0,0-6.15-63.92-23.97-143.85-18.1-81.12-28.05-111.9-1.62-138.03l55.29,14.4Z"/>
        <path class="cls-45" d="M1217.27,1111.2s-8.29,22.65-7.53,49.55l-265.41.18s-83.18,128.14-156,258.7l33.14,16.57s117.08-167.88,170.42-207.53c6.73-5,15.18-7.07,23.49-5.95,84.83,11.44,169.65,23.41,253.61,40.21,48.5,9.7,87.33-5.56,102.26-55.27,4.44-14.77,7.12-31.5,4.95-46.92-3.05-21.68-6.14-30.77-6.14-30.77,0,0-57.14-36.11-152.8-18.78Z"/>
        <path class="cls-36" d="M1171.32,709.32s-19.68,2.36-22.97-14.31c-3.89-19.71.88-58.25,37.04-70.68,36.16-12.43,64.66-3.14,78.59,7.03,13.94,10.17,28.25,24.48,31.64,65.54,3.39,41.05,59.51,70.43,59.51,70.43,0,0,48.21,22.98,76.46,32.01,28.25,9.04,24.86,37.29,21.09,58-3.77,20.72-2.26,29.38,7.53,39.17,8.18,8.18,20.54,13.18,30.01,19.73,14.28,9.87,28.39,21.79,36.27,37.59,10.91,21.87,6.11,51.99-3,73.67-9.2,21.9-24.11,41.34-42.72,56.08-31.25,24.75-70.95,36.89-110.68,33.49-74.95-6.4-207.33-80.56-191.22-241.66,9.42-94.16,1.51-123.91,1.51-123.91l-9.04-42.18Z"/>
        <path class="cls-32" d="M1163.03,981.82s-21.87,14.17-65.54,71c-43.67,56.82-59.51,80.29-59.51,80.29l-14.31.11s18.46-64.95,53.86-117.3,63.28-89.64,63.28-89.64l22.22,55.55Z"/>
        <path class="cls-4" d="M1229.57,833.74s-35.06,5.78-60.17,37.92-35.25,62.52-35.25,62.52c0,0-3.56,40.1,27.12,48.18,11.55,3.04,20.35,31.21,20.62,70.36.1,14.63.12,29.57.1,42.19-.02,13.09,11.6,23.11,24.55,21.16,10.22-1.54,24.45-1.8,44.12.91,58.25,8.03,120.98,18.76,128.87,10.04,7.72-8.54,7.72-11.55,3.11-30.13-3.66-14.75-29.25-116.15-29.25-142.27,0-9.2,2.22-39.27,7.75-55.84,10.38-31.15-18.55-51.07-18.55-51.07,0,0-51.75-16.98-113.02-13.96Z"/>
        <path class="cls-37" d="M1260.45,749.75s1.22,59.47,4.25,84.28c3.03,24.82-11.53,32.35-23.08,32.85-11.55.5-25.11,2.01-26.11-20.84-1-22.85-.5-47.96-4.52-54.49l49.47-41.81Z"/>
        <path class="cls-25" d="M1260.45,749.75s-14.19,46.2-40.55,43.94c-10.99-.94-20.9-6.89-28.93-14.15-8.06-7.29-15.64-16.25-19.16-26.68-3.83-11.35-7.39-23.31-8.79-35.36-.18-1.56-1.7-10.19-.37-11.19,0,0,36.13-25.86,53.04-39.94,3.07-2.55,6.93-4.07,10.91-3.94,4.84.16,9.78,2.54,10.37,12.11,1.07,17.45,3.64,50.78,8.91,51.16,7.15.51,12.3-10.73,18.71-11.11,6.4-.38,14.56,7.41,7.41,20.59-7.16,13.18-11.55,14.56-11.55,14.56Z"/>
        <path class="cls-50" d="M1259.91,950.75s-20.42,36.91-50.55,58.76c-30.13,21.85-109.23,78.34-138.6,105.08,0,0-22.6-14.69-44.07,6.4,0,0-14.69,11.68,7.16,12.05,21.85.38,44.82,0,44.82,0,0,0,145.76-71.94,165.72-87.38s62.78-56.87,71.31-74.57c8.53-17.7-28.21-39.92-55.79-20.34Z"/>
        <path class="cls-7" d="M1315.7,971.09s38.67-35.4,51.47-73.82c12.81-38.42-20.02-51.29-35.66-51.22-9.44.04-15.05,10.68-18.75,17.92-9.58,18.73-18.86,37.65-30.71,55.09-7.22,10.63-14.57,21.17-22.08,31.6-.02.03-.05.06-.07.1,0,0,15.35-8.08,31.18-4.52,22.35,5.02,24.61,24.86,24.61,24.86Z"/>
        <path class="cls-2" d="M996.55,956.75l-188.19.68c-6.71.02-11.4,6.66-9.17,13l62.98,179.1c2.41,6.84,8.87,11.42,16.13,11.41l164.58-.18-46.32-204Z"/>
        <polygon class="cls-23" points="996.55 956.75 990.96 956.75 1037.28 1160.75 866.18 1160.94 866.18 1160.95 1042.87 1160.75 996.55 956.75"/>
        <path class="cls-2" d="M1037.28,1160.75h91.99c6.33,0,12.08-3.71,14.68-9.48l2.13-4.71c2.82-6.26-1.75-13.34-8.62-13.34h-106.44l6.25,27.54Z"/>
        <circle class="cls-22" cx="910.68" cy="1062.23" r="16.22" transform="translate(-218.34 235.81) rotate(-13.19)"/>
      </g>
      <g>
        <g>
          <path class="cls-24" d="M1802.26,1333.39l-6.9-1.59c15.14-65.68,12.23-125.47-9.72-199.95l6.79-2c22.32,75.72,25.26,136.59,9.83,203.54Z"/>
          <path class="cls-24" d="M1788.8,1078.17c-7.6-20.23-16.81-40.64-30.74-56.91-14.84-17.34-25-27.46-47.11-33.1-4.1-1.05-8.42-1.95-12.53-.92-4.1,1.03-7.89,4.56-7.8,8.79.11,5.83,8,12.17,11.19,16.65,5.21,7.35,10.08,14.94,14.7,22.67,16.28,27.21,30.55,55.7,45.74,83.53,5.5,10.07,24.31,34.29,37.12,19.58,9.69-11.13-1.62-35.29-5.65-46.72-1.58-4.48-3.21-9.02-4.92-13.57Z"/>
          <path class="cls-24" d="M1868.71,1113.31c10.16-18.88,18.59-34.22,20.74-37.46,3.82-5.74,12.92-19.78,20.3-11.65,4.55,5.02,1.73,18.17.85,24.11-1.75,11.88-3.8,24.95-8.23,36.19-7.03,17.82-17.36,34.75-30.4,48.81-9.66,10.41-33.23,32.06-48.94,27.16-.54-.17,25.87-50.38,45.68-87.17Z"/>
          <path class="cls-24" d="M1810.88,1232.39l-5.14-1.35c.29-1.12,7.4-27.48,26.68-40.4l2.96,4.41c-17.59,11.79-24.43,37.09-24.5,37.34Z"/>
          <path class="cls-24" d="M1757.17,1183.51c-17.42-5.88-34.44-12.98-50.9-21.17-18.39-9.15-40.93-19.24-54.58-35.09-7.19-8.36-7.35-19.12,7.08-18.71,51.91,1.5,104.56,38.68,125.82,85.63-2.05-4.54-11.14-5.53-15.31-6.79-4.06-1.23-8.09-2.52-12.11-3.87Z"/>
          <path class="cls-24" d="M1803.95,1215.87c-8.75-19.26-31.93-28.34-32.16-28.43l1.9-4.96c1.03.39,25.44,9.92,35.1,31.2l-4.84,2.2Z"/>
          <path class="cls-24" d="M1852.1,1271.09c16.25-5.49,32.12-12.11,47.48-19.75,17.16-8.53,38.18-17.95,50.91-32.73,6.71-7.8,6.86-17.84-6.6-17.45-48.42,1.4-97.53,36.08-117.36,79.88,1.92-4.23,10.39-5.15,14.28-6.33,3.78-1.14,7.55-2.35,11.3-3.61Z"/>
          <path class="cls-24" d="M1808.46,1301.27l-4.51-2.05c9.01-19.85,31.78-28.73,32.74-29.1l1.77,4.63c-.22.08-21.84,8.55-30,26.52Z"/>
        </g>
        <path class="cls-3" d="M1783.67,1310.5h46.96c6.4,0,11.59,5.19,11.59,11.59v233.18c0,6.4-5.19,11.59-11.59,11.59h-46.96c-6.4,0-11.59-5.19-11.59-11.59v-233.18c0-6.4,5.19-11.59,11.59-11.59Z"/>
        <path class="cls-21" d="M1788.02,1397.88h0c3.6,0,6.54-2.94,6.54-6.54v-43.07c0-3.6-2.94-6.54-6.54-6.54h0c-3.6,0-6.54,2.94-6.54,6.54v43.07c0,3.6,2.94,6.54,6.54,6.54Z"/>
      </g>
    </g>
    <circle class="cls-8" cx="937.76" cy="461.14" r="41.12" transform="translate(293.38 1283.82) rotate(-78.12)"/>
    <circle class="cls-17" cx="1491.07" cy="639.16" r="34.79" transform="translate(-131.21 633.77) rotate(-23.01)"/>
  </g>
  <g>
    <path d="M819.65,225.12v568.66c0,15.33-12.41,27.74-27.72,27.74H27.72c-15.3,0-27.72-12.41-27.72-27.74V225.12c0-15.33,12.41-27.74,27.72-27.74h764.21c15.3,0,27.72,12.41,27.72,27.74Z"/>
    <path class="cls-40" d="M819.65,225.12v20.3H0v-20.3c0-15.33,12.41-27.74,27.72-27.74h764.21c15.3,0,27.72,12.41,27.72,27.74Z"/>
    <circle class="cls-13" cx="38.11" cy="221.4" r="8.44" transform="translate(-50.02 14.75) rotate(-13.33)"/>
    <circle class="cls-35" cx="63.68" cy="221.4" r="8.44" transform="translate(-49.33 20.65) rotate(-13.33)"/>
    <circle class="cls-48" cx="89.24" cy="221.4" r="8.44" transform="translate(-48.65 26.54) rotate(-13.33)"/>
    <g>
      <circle class="cls-41" cx="109.86" cy="301.14" r="4.94"/>
      <rect class="cls-41" x="131.32" y="294.26" width="133.63" height="13.75" rx="3.46" ry="3.46"/>
      <circle class="cls-41" cx="109.86" cy="328.31" r="4.94"/>
      <rect class="cls-41" x="131.32" y="321.43" width="91.28" height="13.75" rx="3.46" ry="3.46"/>
      <rect class="cls-41" x="230.35" y="321.43" width="52.05" height="13.75" rx="3.46" ry="3.46"/>
      <circle class="cls-41" cx="109.86" cy="355.48" r="4.94"/>
      <rect class="cls-41" x="131.32" y="348.61" width="68.55" height="13.75" rx="3.46" ry="3.46"/>
      <circle class="cls-41" cx="109.86" cy="382.65" r="4.94"/>
      <rect class="cls-49" x="155.78" y="375.78" width="47.54" height="13.75" rx="3.46" ry="3.46"/>
      <rect class="cls-18" x="319.91" y="375.78" width="76.96" height="13.75" rx="3.46" ry="3.46"/>
      <rect class="cls-18" x="404.68" y="375.78" width="47.54" height="13.75" rx="3.46" ry="3.46"/>
      <rect class="cls-41" x="211.15" y="375.78" width="100.94" height="13.75" rx="3.46" ry="3.46"/>
      <rect class="cls-49" x="204.25" y="457.29" width="33.34" height="13.75" rx="3.46" ry="3.46"/>
      <rect class="cls-18" x="354.18" y="457.29" width="27.97" height="13.75" rx="3.46" ry="3.46"/>
      <rect class="cls-18" x="557.22" y="457.29" width="15.71" height="13.75" rx="3.46" ry="3.46"/>
      <rect class="cls-18" x="389.97" y="457.29" width="159.43" height="13.75" rx="3.46" ry="3.46"/>
      <rect class="cls-41" x="245.42" y="457.29" width="100.94" height="13.75" rx="3.46" ry="3.46"/>
      <circle class="cls-41" cx="109.86" cy="409.82" r="4.94" transform="translate(-303.88 503.87) rotate(-87.8)"/>
      <rect class="cls-41" x="155.78" y="402.95" width="68.55" height="13.75" rx="3.46" ry="3.46"/>
      <rect class="cls-41" x="230.68" y="402.95" width="129.13" height="13.75" rx="3.46" ry="3.46"/>
      <rect class="cls-41" x="366.17" y="402.95" width="19.89" height="13.75" rx="3.46" ry="3.46"/>
      <path class="cls-41" d="M114.8,436.99c0-2.73-2.21-4.94-4.94-4.94s-4.94,2.21-4.94,4.94,2.21,4.94,4.94,4.94,4.94-2.21,4.94-4.94Z"/>
      <path class="cls-41" d="M114.8,464.17c0-2.73-2.21-4.94-4.94-4.94s-4.94,2.21-4.94,4.94,2.21,4.94,4.94,4.94,4.94-2.21,4.94-4.94Z"/>
      <rect class="cls-41" x="155.78" y="457.29" width="39.7" height="13.75" rx="3.46" ry="3.46"/>
      <rect class="cls-41" x="239.77" y="484.46" width="33.34" height="13.75" rx="3.46" ry="3.46"/>
      <rect class="cls-41" x="389.69" y="484.46" width="34.85" height="13.75" rx="3.46" ry="3.46"/>
      <rect class="cls-41" x="432.37" y="484.46" width="193.52" height="13.75" rx="3.46" ry="3.46"/>
      <rect class="cls-41" x="280.94" y="484.46" width="100.94" height="13.75" rx="3.46" ry="3.46"/>
      <rect class="cls-41" x="191.3" y="484.46" width="39.7" height="13.75" rx="3.46" ry="3.46"/>
      <rect class="cls-41" x="344.36" y="538.81" width="33.34" height="13.75" rx="3.46" ry="3.46"/>
      <rect class="cls-41" x="683.7" y="538.81" width="33.34" height="13.75" rx="3.46" ry="3.46"/>
      <rect class="cls-41" x="494.29" y="538.81" width="34.85" height="13.75" rx="3.46" ry="3.46"/>
      <rect class="cls-41" x="536.96" y="538.81" width="138.92" height="13.75" rx="3.46" ry="3.46"/>
      <rect class="cls-49" x="385.53" y="538.81" width="100.94" height="13.75" rx="3.46" ry="3.46"/>
      <rect class="cls-41" x="295.89" y="538.81" width="39.7" height="13.75" rx="3.46" ry="3.46"/>
      <path class="cls-41" d="M114.8,491.34c0-2.73-2.21-4.94-4.94-4.94s-4.94,2.21-4.94,4.94,2.21,4.94,4.94,4.94,4.94-2.21,4.94-4.94Z"/>
      <path class="cls-41" d="M114.8,518.51c0-2.73-2.21-4.94-4.94-4.94s-4.94,2.21-4.94,4.94,2.21,4.94,4.94,4.94,4.94-2.21,4.94-4.94Z"/>
      <path class="cls-41" d="M114.8,545.68c0-2.73-2.21-4.94-4.94-4.94s-4.94,2.21-4.94,4.94,2.21,4.94,4.94,4.94,4.94-2.21,4.94-4.94Z"/>
      <rect class="cls-41" x="155.78" y="538.81" width="133.63" height="13.75" rx="3.46" ry="3.46"/>
      <path class="cls-41" d="M114.8,572.85c0-2.73-2.21-4.94-4.94-4.94s-4.94,2.21-4.94,4.94,2.21,4.94,4.94,4.94,4.94-2.21,4.94-4.94Z"/>
      <path class="cls-41" d="M114.8,600.02c0-2.73-2.21-4.94-4.94-4.94s-4.94,2.21-4.94,4.94,2.21,4.94,4.94,4.94,4.94-2.21,4.94-4.94Z"/>
      <rect class="cls-49" x="215.59" y="593.15" width="68.55" height="13.75" rx="3.46" ry="3.46"/>
      <path class="cls-41" d="M114.8,627.19c0-2.73-2.21-4.94-4.94-4.94s-4.94,2.21-4.94,4.94,2.21,4.94,4.94,4.94,4.94-2.21,4.94-4.94Z"/>
      <rect class="cls-41" x="215.59" y="620.32" width="25.91" height="13.75" rx="3.46" ry="3.46"/>
      <rect class="cls-41" x="248.66" y="620.32" width="58.65" height="13.75" rx="3.46" ry="3.46"/>
      <rect class="cls-18" x="315.04" y="620.32" width="111.24" height="13.75" rx="3.46" ry="3.46"/>
      <path class="cls-41" d="M114.8,654.37c0-2.73-2.21-4.94-4.94-4.94s-4.94,2.21-4.94,4.94,2.21,4.94,4.94,4.94,4.94-2.21,4.94-4.94Z"/>
      <rect class="cls-41" x="215.59" y="647.49" width="106.05" height="13.75" rx="3.46" ry="3.46"/>
      <rect class="cls-41" x="328.85" y="647.49" width="58.41" height="13.75" rx="3.46" ry="3.46"/>
      <rect class="cls-41" x="395.34" y="647.49" width="92.85" height="13.75" rx="3.46" ry="3.46"/>
      <path class="cls-41" d="M114.8,681.54c0-2.73-2.21-4.94-4.94-4.94s-4.94,2.21-4.94,4.94,2.21,4.94,4.94,4.94,4.94-2.21,4.94-4.94Z"/>
      <rect class="cls-41" x="215.59" y="674.66" width="59.25" height="13.75" rx="3.46" ry="3.46"/>
      <rect class="cls-41" x="282.46" y="674.66" width="48.12" height="13.75" rx="3.46" ry="3.46"/>
      <path class="cls-41" d="M114.8,708.71c0-2.73-2.21-4.94-4.94-4.94s-4.94,2.21-4.94,4.94,2.21,4.94,4.94,4.94,4.94-2.21,4.94-4.94Z"/>
      <path class="cls-41" d="M114.8,735.88c0-2.73-2.21-4.94-4.94-4.94s-4.94,2.21-4.94,4.94,2.21,4.94,4.94,4.94,4.94-2.21,4.94-4.94Z"/>
      <rect class="cls-41" x="268.77" y="729.01" width="93.99" height="13.75" rx="3.46" ry="3.46"/>
      <rect class="cls-41" x="375.1" y="729.01" width="40.68" height="13.75" rx="3.46" ry="3.46"/>
      <circle class="cls-41" cx="109.86" cy="763.05" r="4.94"/>
      <rect class="cls-41" x="268.77" y="756.18" width="79.31" height="13.75" rx="3.46" ry="3.46"/>
      <rect class="cls-49" x="355.68" y="756.18" width="134.24" height="13.75" rx="3.46" ry="3.46"/>
      <rect class="cls-49" x="268.61" y="701.83" width="35.86" height="13.75" rx="3.46" ry="3.46"/>
      <rect class="cls-18" x="374.57" y="701.83" width="176.99" height="13.75" rx="3.46" ry="3.46"/>
      <rect class="cls-18" x="559.37" y="701.83" width="91.56" height="13.75" rx="3.46" ry="3.46"/>
      <rect class="cls-41" x="312.29" y="701.83" width="54.45" height="13.75" rx="3.46" ry="3.46"/>
    </g>
  </g>
  <g>
    <path d="M1968.41,22.46v460.48c0,12.41-10.05,22.46-22.45,22.46h-618.83c-12.39,0-22.44-10.05-22.44-22.46V22.46c0-12.41,10.05-22.46,22.44-22.46h618.83c12.39,0,22.45,10.05,22.45,22.46Z"/>
    <path class="cls-40" d="M1968.41,22.46v16.44h-663.72v-16.44c0-12.41,10.05-22.46,22.44-22.46h618.83c12.39,0,22.45,10.05,22.45,22.46Z"/>
    <circle class="cls-13" cx="1335.55" cy="19.45" r="6.83" transform="translate(14.13 214.18) rotate(-9.22)"/>
    <circle class="cls-35" cx="1356.25" cy="19.45" r="6.83" transform="translate(1239.38 1370.8) rotate(-85.88)"/>
    <circle class="cls-48" cx="1376.95" cy="19.45" r="6.83" transform="translate(14.66 220.81) rotate(-9.22)"/>
    <g>
      <rect class="cls-41" x="1454.13" y="282.74" width="55.7" height="12.48" rx="3.14" ry="3.14"/>
      <path class="cls-41" d="M1618.78,282.74h48.01c1.73,0,3.14,1.41,3.14,3.14v6.2c0,1.73-1.41,3.14-3.14,3.14h-48.01c-1.73,0-3.14-1.41-3.14-3.14v-6.2c0-1.73,1.41-3.14,3.14-3.14Z"/>
      <rect class="cls-41" x="1677.03" y="282.74" width="28.16" height="12.48" rx="3.14" ry="3.14"/>
      <path class="cls-41" d="M1520.06,282.74h85.34c1.73,0,3.14,1.41,3.14,3.14v6.2c0,1.73-1.41,3.14-3.14,3.14h-85.34c-1.73,0-3.14-1.41-3.14-3.14v-6.2c0-1.73,1.41-3.14,3.14-3.14Z"/>
      <rect class="cls-41" x="1712.54" y="282.74" width="102.1" height="12.48" rx="3.14" ry="3.14"/>
      <path class="cls-41" d="M1430.69,282.74h12.34c1.73,0,3.14,1.41,3.14,3.14v6.2c0,1.73-1.41,3.14-3.14,3.14h-12.34c-1.73,0-3.14-1.41-3.14-3.14v-6.2c0-1.73,1.41-3.14,3.14-3.14Z"/>
      <path class="cls-41" d="M1469.33,332.06h49.42c1.73,0,3.14,1.41,3.14,3.14v6.2c0,1.73-1.41,3.14-3.14,3.14h-49.42c-1.73,0-3.14-1.41-3.14-3.14v-6.2c0-1.73,1.41-3.14,3.14-3.14Z"/>
      <path class="cls-41" d="M1763.7,332.06h71.02c1.73,0,3.14,1.41,3.14,3.14v6.2c0,1.73-1.41,3.14-3.14,3.14h-71.02c-1.73,0-3.14-1.41-3.14-3.14v-6.2c0-1.73,1.41-3.14,3.14-3.14Z"/>
      <path class="cls-41" d="M1532.13,332.06h218.19c1.73,0,3.14,1.41,3.14,3.14v6.2c0,1.73-1.41,3.14-3.14,3.14h-218.19c-1.73,0-3.14-1.41-3.14-3.14v-6.2c0-1.73,1.41-3.14,3.14-3.14Z"/>
      <path class="cls-41" d="M1430.69,332.06h24.41c1.73,0,3.14,1.41,3.14,3.14v6.2c0,1.73-1.41,3.14-3.14,3.14h-24.41c-1.73,0-3.14-1.41-3.14-3.14v-6.2c0-1.73,1.41-3.14,3.14-3.14Z"/>
      <rect class="cls-41" x="1673.34" y="307.4" width="62.67" height="12.48" rx="3.14" ry="3.14"/>
      <rect class="cls-49" x="1743.1" y="307.4" width="130.7" height="12.48" rx="3.14" ry="3.14"/>
      <path class="cls-41" d="M1632.48,307.4h29.76c1.73,0,3.14,1.41,3.14,3.14v6.2c0,1.73-1.41,3.14-3.14,3.14h-29.76c-1.73,0-3.14-1.41-3.14-3.14v-6.2c0-1.73,1.41-3.14,3.14-3.14Z"/>
      <path class="cls-41" d="M1505.31,307.4h115.01c1.73,0,3.14,1.41,3.14,3.14v6.2c0,1.73-1.41,3.14-3.14,3.14h-115.01c-1.73,0-3.14-1.41-3.14-3.14v-6.2c0-1.73,1.41-3.14,3.14-3.14Z"/>
      <path class="cls-49" d="M1382.42,110.11h55.94c1.73,0,3.14,1.41,3.14,3.14v6.2c0,1.73-1.41,3.14-3.14,3.14h-55.94c-1.73,0-3.14-1.41-3.14-3.14v-6.2c0-1.73,1.41-3.14,3.14-3.14Z"/>
      <rect class="cls-41" x="1379.28" y="134.77" width="23.52" height="12.48" rx="3.14" ry="3.14"/>
      <path class="cls-41" d="M1412.43,134.77h46.96c1.73,0,3.14,1.41,3.14,3.14v6.2c0,1.73-1.41,3.14-3.14,3.14h-46.96c-1.73,0-3.14-1.41-3.14-3.14v-6.2c0-1.73,1.41-3.14,3.14-3.14Z"/>
      <rect class="cls-18" x="1469.54" y="134.77" width="100.96" height="12.48" rx="3.14" ry="3.14"/>
      <rect class="cls-41" x="1379.28" y="159.43" width="96.25" height="12.48" rx="3.14" ry="3.14"/>
      <rect class="cls-41" x="1482.08" y="159.43" width="53.01" height="12.48" rx="3.14" ry="3.14"/>
      <rect class="cls-41" x="1542.43" y="159.43" width="84.28" height="12.48" rx="3.14" ry="3.14"/>
      <rect class="cls-41" x="1379.28" y="184.09" width="53.78" height="12.48" rx="3.14" ry="3.14"/>
      <path class="cls-41" d="M1443.11,184.09h37.4c1.73,0,3.14,1.41,3.14,3.14v6.2c0,1.73-1.41,3.14-3.14,3.14h-37.4c-1.73,0-3.14-1.41-3.14-3.14v-6.2c0-1.73,1.41-3.14,3.14-3.14Z"/>
      <path class="cls-41" d="M1430.69,233.42h79.03c1.73,0,3.14,1.41,3.14,3.14v6.2c0,1.73-1.41,3.14-3.14,3.14h-79.03c-1.73,0-3.14-1.41-3.14-3.14v-6.2c0-1.73,1.41-3.14,3.14-3.14Z"/>
      <path class="cls-41" d="M1527.19,233.42h30.65c1.73,0,3.14,1.41,3.14,3.14v6.2c0,1.73-1.41,3.14-3.14,3.14h-30.65c-1.73,0-3.14-1.41-3.14-3.14v-6.2c0-1.73,1.41-3.14,3.14-3.14Z"/>
      <rect class="cls-41" x="1427.55" y="258.08" width="71.99" height="12.48" rx="3.14" ry="3.14"/>
      <path class="cls-49" d="M1509.57,258.08h115.56c1.73,0,3.14,1.41,3.14,3.14v6.2c0,1.73-1.41,3.14-3.14,3.14h-115.56c-1.73,0-3.14-1.41-3.14-3.14v-6.2c0-1.73,1.41-3.14,3.14-3.14Z"/>
      <path class="cls-41" d="M1430.69,307.4h59.5c1.73,0,3.14,1.41,3.14,3.14v6.2c0,1.73-1.41,3.14-3.14,3.14h-59.5c-1.73,0-3.14-1.41-3.14-3.14v-6.2c0-1.73,1.41-3.14,3.14-3.14Z"/>
      <rect class="cls-18" x="1427.55" y="356.73" width="292.61" height="12.48" rx="3.14" ry="3.14"/>
      <rect class="cls-18" x="1379.28" y="381.39" width="23.52" height="12.48" rx="3.14" ry="3.14"/>
      <path class="cls-41" d="M1382.42,406.05h122.45c1.73,0,3.14,1.41,3.14,3.14v6.2c0,1.73-1.41,3.14-3.14,3.14h-122.45c-1.73,0-3.14-1.41-3.14-3.14v-6.2c0-1.73,1.41-3.14,3.14-3.14Z"/>
      <rect class="cls-41" x="1514.96" y="406.05" width="80.66" height="12.48" rx="3.14" ry="3.14"/>
      <rect class="cls-49" x="1427.4" y="208.75" width="32.55" height="12.48" rx="3.14" ry="3.14"/>
      <path class="cls-18" d="M1526.71,208.75h154.36c1.73,0,3.14,1.41,3.14,3.14v6.2c0,1.73-1.41,3.14-3.14,3.14h-154.36c-1.73,0-3.14-1.41-3.14-3.14v-6.2c0-1.73,1.41-3.14,3.14-3.14Z"/>
      <rect class="cls-18" x="1691.31" y="208.75" width="83.11" height="12.48" rx="3.14" ry="3.14"/>
      <rect class="cls-41" x="1467.05" y="208.75" width="49.42" height="12.48" rx="3.14" ry="3.14"/>
    </g>
  </g>
</svg>