<?xml version="1.0" encoding="UTF-8"?>
<svg id="grad" xmlns="http://www.w3.org/2000/svg" xmlns:xlink="http://www.w3.org/1999/xlink" version="1.1" viewBox="0 0 3577.27 2416.42">
  <!-- Generator: Adobe Illustrator 29.4.0, SVG Export Plug-In . SVG Version: 2.1.0 Build 152)  -->
  <defs>
    <style>
      .st0 {
        fill: #901f1f;
      }

      .st0, .st1, .st2, .st3, .st4, .st5, .st6, .st7, .st8, .st9, .st10, .st11, .st12, .st13, .st14, .st15, .st16, .st17, .st18, .st19, .st20 {
        fill-rule: evenodd;
      }

      .st1 {
        fill: #fff;
      }

      .st2 {
        fill: #afafaf;
      }

      .st3 {
        fill: #db3c37;
      }

      .st4 {
        fill: #de8f23;
      }

      .st5 {
        fill: #154d77;
      }

      .st6 {
        fill: #002f47;
      }

      .st7 {
        fill: #dc5b5b;
      }

      .st8 {
        fill: #bd8119;
      }

      .st9, .st10 {
        fill: #151a33;
      }

      .st9, .st10, .st11, .st17 {
        isolation: isolate;
      }

      .st9, .st17 {
        opacity: .25;
      }

      .st10 {
        opacity: .35;
      }

      .st11 {
        fill: #b9a2c9;
        opacity: .33;
      }

      .st12 {
        fill: #333;
      }

      .st13 {
        fill: url(#linear-gradient);
      }

      .st14 {
        fill: #1a1a1a;
      }

      .st15 {
        fill: url(#linear-gradient1);
      }

      .st16 {
        fill: #ffb323;
      }

      .st18 {
        fill: #ffcb73;
      }

      .st19 {
        fill: #3a7ba2;
      }

      .st20 {
        fill: #292929;
      }
    </style>
    <linearGradient id="linear-gradient" x1="981.88" y1="-756.83" x2="2378.21" y2="-1210.53" gradientTransform="translate(0 1702.82)" gradientUnits="userSpaceOnUse">
      <stop offset="0" stop-color="#12100c"/>
      <stop offset="1" stop-color="#494644"/>
    </linearGradient>
    <linearGradient id="linear-gradient1" x1="1774.41" y1="-410.28" x2="2150.19" y2="-569.79" gradientTransform="translate(0 1702.82)" gradientUnits="userSpaceOnUse">
      <stop offset="0" stop-color="#24211f"/>
      <stop offset="1" stop-color="#494644"/>
    </linearGradient>
  </defs>
  <path class="st9" d="M1785.95,2281.5c-685.67,0-1241.51-52.93-1241.51-118.23s555.84-118.23,1241.51-118.23,1241.51,52.93,1241.51,118.23-555.84,118.23-1241.51,118.23h0Z"/>
  <path class="st11" d="M1722.68,0c687,0,620.63,656.25,1077.32,668.67,456.7,12.42,777.27,341.64,777.27,852.58s-333.4,895.17-728,895.17-568.94-103.27-1080.41-96.09c-511.47,7.18-458.27,60.58-976.94,60.58S0,1835.72,0,1416.95s214.84-745.7,609.83-745.7S1035.69,0,1722.69,0h0Z"/>
  <g>
    <path class="st5" d="M2075.09,1829.04v334.17l566.48-.34h45.75l.04-.03h11.62v.11c63.92-.03,99.52-35.84,119.11-80.46l.04.02c17.46-39.86,20.8-86.21,20.78-116.64-.02-30.52-3.6-76.17-21.26-115.26-19.75-43.71-55.39-78.56-118.83-78.54h-623.73v56.97h0Z"/>
    <path class="st19" d="M2075.09,1829.04v14.85c83.45,10.7,191.71,17.15,310.02,17.15,179.6,0,336.03-14.88,417.66-36.87-21.29-30.52-54-52.13-103.96-52.11h-623.72v56.97h0Z"/>
    <path class="st6" d="M2088.83,2163.2l552.73-.34h45.75l.04-.03h11.62v.11c63.92-.03,99.53-35.84,119.11-80.47l.04.02c5.62-12.82,9.78-26.3,12.83-39.73-218.64,49.64-503.26,7-742.12,28.34v92.1h0Z"/>
    <path class="st1" d="M2093.42,1816.39l-957.73.95c15.56,43.48,24.51,93.4,24.51,148.54s-9.54,108.33-26.03,152.71c-1.94,6.77-3.99,13.69-6.17,20.86l1026.19-1.21c133.73-1.78,112.93-321.97-60.78-321.85h.01Z"/>
    <path class="st2" d="M1150.38,2060.69l591.99-7.37-588.49-11.63c-1.05,6.41-2.22,12.75-3.5,19h0ZM1153.6,1888.46c-3.81-22.99-9.27-44.83-16.17-65.17l1026.64-7.1c17.75.54,33.86,5.83,48.43,14.93l.04,92.21c-18.63-22.64-40.93-35.84-66.91-35.83l-992.02.97h0ZM1159.67,1942.39l750.42-7.52-752.08-11.71c1.23,13.95,1.87,29.88,1.87,42.74s-.38,22.26-1.13,33.12l980.99-10.14-979.6-15.79c.3-10.23.16-20.46-.47-30.68v-.02h0Z"/>
    <path class="st3" d="M1562.43,2075.16l44.38-21.2,46.7,22.04c18.25,8.61,39.23-4.74,39.21-24.95l-.09-59.14-170.3,1.76.78,57.01c.29,20.07,21.23,33.11,39.32,24.47h0Z"/>
    <path class="st6" d="M1088.86,1829.56l1038.4-.78c35.71-.02,55.94,20.01,67.28,45.12,13.44,29.72,16.16,66.83,16.17,92,.01,25.26-2.54,63.27-15.92,93.81v.11c-11.29,25.74-31.51,46.39-67.41,46.41v.11l-1038.52,9.96v47.66l1038.54-1.12v.12c63.92-.03,99.52-35.84,119.1-80.46l.05.02c17.47-39.86,20.8-86.21,20.78-116.64-.02-30.52-3.59-76.17-21.26-115.26-19.74-43.71-55.38-78.56-118.82-78.54h-10.25l-85.65.04-188.12.08-754.35.65v56.72h-.02Z"/>
  </g>
  <g>
    <path class="st3" d="M2104.5,1436.07v335.84l569.33-.34h45.99l.03-.03h11.68v.1c64.23-.03,100.02-36.01,119.7-80.86l.04.02c17.55-40.06,20.9-86.63,20.89-117.22-.03-30.68-3.62-76.56-21.37-115.85-19.84-43.92-55.66-78.96-119.42-78.94h-626.89v57.27h.02Z"/>
    <path class="st7" d="M2104.5,1436.07v14.92c83.87,10.75,192.68,17.24,311.58,17.24,180.51,0,337.72-14.96,419.77-37.06-21.4-30.68-54.27-52.39-104.48-52.38h-626.87v57.27h0Z"/>
    <path class="st0" d="M2118.33,1771.91l555.51-.34h45.98l.03-.03h11.68v.1c64.23-.03,100.02-36.01,119.7-80.86l.04.02c5.65-12.89,9.82-26.45,12.89-39.93-219.73,49.89-505.78,7.03-745.84,28.48v92.56h.01Z"/>
    <path class="st1" d="M2122.94,1423.34l-962.54.98c15.63,43.69,24.63,93.85,24.63,149.28s-9.57,108.86-26.15,153.47c-1.95,6.8-4.02,13.77-6.21,20.97l1031.35-1.22c134.39-1.78,113.5-323.59-61.08-323.48Z"/>
    <path class="st2" d="M1178.91,1649.96c-1.03,6.36-2.19,12.62-3.47,18.81l613.39-7.3-609.93-11.51h0ZM1184.98,1580.94c-.13,8.68-.5,17.31-1.09,25.85l1016.61-10.1-1015.52-15.75h0ZM1183.19,1530.77l779.39,11.65-778.1,7.48c-.31-6.45-.73-12.83-1.28-19.13h-.01ZM1162.46,1430.22c6.97,20.52,12.48,42.41,16.32,65.55l1001.97-.96c26.92-.01,50.02,13.25,69.32,36.01v-15.92c-22.2-49.3-61.75-87.81-118.6-91.29l-969.01,6.61h0Z"/>
    <path class="st0" d="M1113.32,1436.58l1043.62-.78c35.89-.01,56.23,20.11,67.62,45.34,13.5,29.87,16.23,67.17,16.24,92.46,0,25.39-2.54,63.58-16,94.28v.11c-11.34,25.86-31.66,46.62-67.75,46.64v.11l-1043.74,10v47.91l1043.76-1.12v.1c64.24-.03,100.03-36.01,119.71-80.86l.05.02c17.54-40.06,20.89-86.63,20.87-117.22,0-30.68-3.6-76.56-21.35-115.85-19.84-43.92-55.66-78.96-119.43-78.94h-10.3l-86.08.05-189.08.09-758.14.65v57h0Z"/>
    <path class="st0" d="M2676.61,1433.67c22.46,49.1,36.04,98.21,35.69,147.3-.36,49.11-14.3,98.15-35.69,147.22h42.67c18.81-49.07,31.08-98.11,31.28-147.22.2-49.1-12.32-98.2-31.28-147.3h-42.67ZM2384.97,1433.67h42.62c14.64,49.1,24.12,98.21,24.22,147.3.1,49.07-8.98,98.15-24.22,147.22h-42.62c17.83-49.07,28.56-98.15,28.58-147.22.02-49.08-10.5-98.2-28.58-147.3h0ZM2318.06,1433.67h42.62c13.64,49.1,22.38,98.21,22.55,147.3.18,49.06-8.1,98.15-22.55,147.22h-42.62c17.03-49.07,27.02-98.16,26.97-147.22-.05-49.07-9.89-98.2-26.97-147.3h0ZM2743.52,1433.67h42.68c19.97,49.1,33.22,98.2,32.95,147.3-.28,49.11-13.28,98.15-32.95,147.22h-42.68c22.2-49.07,36.98-98.11,37.41-147.22.41-49.09-13.9-98.2-37.41-147.3Z"/>
  </g>
  <g>
    <path class="st16" d="M1843.19,1044.19v335.85l741.31-.34h45.98l.04-.02h11.69v.1c64.24-.03,100.02-36.02,119.71-80.86l.03.02c17.55-40.06,20.9-86.64,20.88-117.22-.02-30.68-3.61-76.55-21.36-115.84-19.85-43.93-55.66-78.96-119.42-78.94h-798.87v57.27-.02h.01Z"/>
    <path class="st18" d="M1843.19,1044.19v24.26c75.68,4.76,156.83,7.35,241.26,7.35,268.19,0,503.3-26.05,634.76-65.15-19.54-14.67-44.73-23.73-77.15-23.72h-798.87v57.27h0Z"/>
    <path class="st8" d="M1842.65,1272.03v108.01l741.31-.34h45.98l.04-.03,11.69-.02v.13c64.24-.03,100.02-36.03,119.7-80.87l.05.02c8.44-19.27,13.6-40.06,16.68-59.85-276.26,60.7-630.4,12.49-935.44,32.95h0Z"/>
    <path class="st1" d="M1861.63,1031.47l-686.27.97c15.63,43.7,24.64,93.86,24.64,149.28s-9.58,108.88-26.16,153.48c-1.95,6.8-4.01,13.76-6.21,20.96l755.08-1.21c134.39-1.79,113.5-323.59-61.08-323.48Z"/>
    <path class="st2" d="M1198.73,1216.42c-.35,4.9-.78,9.77-1.27,14.61l583.78-5.65-582.51-8.97h0ZM1199.29,1155.3c.33,6.12.53,12.29.63,18.54l698.41-7.15-699.04-11.39h0ZM1861.63,1031.47l-686.27.97c6.91,19.31,12.52,39.89,16.64,61.62l705.74.17c26.11,0,64.21,13.24,82.94,35.99l-.02-46.9-.1-.14c-24.64-30.4-71.13-49.18-110.72-51.47h-.22c-2.61-.15-5.27-.24-7.98-.23h-.01Z"/>
    <path class="st8" d="M1134.02,1044.2l761.61-.27c35.9-.01,56.23,20.12,67.63,45.35,13.5,29.87,16.24,67.16,16.25,92.46,0,25.39-2.55,63.58-16.01,94.28v.11c-11.34,25.86-31.67,46.62-67.74,46.65v.1l-761.74,9.5v47.91l761.74-.62v.11c64.25-.03,100.03-36.02,119.71-80.86l.04.02c17.56-40.06,20.91-86.64,20.89-117.22-.02-30.68-3.61-76.55-21.37-115.84-19.85-43.93-55.66-78.96-119.42-78.94h-10.29c-344.45.14-406.87-.03-751.3.27v57h0Z"/>
    <path class="st8" d="M2572.77,1064.13h46.35c24.17,62.89,26.88,171.41,0,234.3h-46.35c19.82-62.89,18.66-171.41,0-234.3h0ZM2189.89,1064.13h46.36c24.17,62.89,26.88,171.41,0,234.3h-46.36c19.82-62.89,18.67-171.41,0-234.3h0ZM2381.32,1064.13h46.35c24.17,62.89,26.89,171.41,0,234.3h-46.35c19.83-62.89,18.67-171.41,0-234.3Z"/>
  </g>
  <g>
    <path class="st10" d="M1179.21,1492.21l1191.18-534.14c186.82,49.75,116.49,194.44-50,374.63-133.02,143.96-487.73,418-935.37,471.93-201.85,18.3-247.66-17.23-225.14-80.32,18.98-53.19,33.47-132.86,19.32-232.09h0Z"/>
    <path class="st14" d="M2251.17,519.07l242.46,318.58c44.47,58.45,47.39,138.55,7.43,200.18-141.61,218.45-471.96,488.04-561.04,518.66-89.19,30.66-515.16,21.05-760.8-64.29-69.3-24.07-116.09-89.1-116.79-162.59l-3.81-400.61,1192.55-409.93h0Z"/>
    <path class="st20" d="M2251.17,519.07l242.46,318.57c44.47,58.45,47.39,138.55,7.43,200.19-141.61,218.45-471.96,488.04-561.04,518.66-5.13,1.76-11.41,3.38-18.66,4.87-70.36-296.54-173.18-567.41-367.12-802.73l696.93-239.57h0Z"/>
    <path class="st12" d="M2251.17,519.07l242.46,318.57c44.47,58.45,47.39,138.55,7.43,200.19-75.52,116.5-204.72,247.55-322.38,349.14-114.31-264.91-256.52-497.4-492.91-673.54l565.41-194.36h0Z"/>
    <path class="st17" d="M2251.17,519.07l199.09,261.59-530.3,561.31c-14.16,14.99-30.2,27.14-47.35,36.05l-.26.14c-17.16,8.87-35.43,14.51-54.04,16.5l-685.02,73.38c-43.27-31.83-70.31-82.69-70.84-138.43l-3.04-319.85,113.37-119.99,1078.42-370.7h-.03Z"/>
    <path class="st13" d="M454.75,1112l1012.68-813.11c9.74-7.82,20.58-13.97,32.09-18.3l6.4-2.2c11.75-3.66,24.08-5.48,36.57-5.29l1297.5,18.99c27.98.42,40.08,35.74,18.24,53.28l-996.41,800.1c-15.82,12.7-33.59,22.45-52.48,28.96l-.29.1c-18.9,6.48-38.9,9.71-59.16,9.42l-1276.9-18.66c-14-.2-24.03-9.14-27.82-20.21-3.79-11.08-1.35-24.29,9.58-33.07h0Z"/>
    <path class="st20" d="M447,1089.37l1012.68-813.11c9.74-7.82,20.58-13.97,32.09-18.3l6.4-2.2c11.75-3.66,24.08-5.48,36.57-5.29l1297.5,18.99c27.98.42,40.08,35.74,18.25,53.28l-996.41,800.1c-15.82,12.7-33.59,22.45-52.47,28.96l-.29.1c-18.9,6.47-38.9,9.71-59.16,9.42l-1276.9-18.66c-14-.2-24.03-9.14-27.82-20.21-3.79-11.08-1.35-24.29,9.58-33.07h-.02,0Z"/>
    <path class="st14" d="M1594.04,753.94c-72.01,24.88-144.54,49.59-215.98,73.92-396.14,134.95-758.54,258.4-806.14,332.02l-27.49-17.81c53.72-83.07,421.27-208.28,823.04-345.15,67.09-22.86,135.14-46.04,202.82-69.38.97-18.5,22.95-39.64,54.2-50.39,36.18-12.44,71.08-6.24,77.96,13.84,6.87,20.08-16.88,46.44-53.06,58.87-20.47,7.04-40.54,8.11-55.35,4.07h0Z"/>
    <path class="st16" d="M1643.2,718.46c-88.36,30.75-178.07,61.32-266.13,91.32-396.14,134.95-758.54,258.4-806.14,332.02-59.99,92.77-9.09,188.27,42.13,284.36,40.47,75.92,81.12,152.18,73.47,232.1l-32.58-3.04c6.72-70.25-31.6-142.14-69.75-213.71-55.76-104.62-111.19-208.6-40.76-317.52,53.72-83.08,421.27-208.28,823.04-345.15,88.06-30,177.77-60.56,266.13-91.32l10.6,30.94h0Z"/>
    <path class="st4" d="M1634.13,663.21c36.54-12.56,71.8-6.3,78.74,13.98,6.95,20.28-17.05,46.9-53.59,59.46-36.54,12.56-71.8,6.3-78.74-13.98s17.05-46.9,53.59-59.46Z"/>
    <path class="st4" d="M654.32,1650.51c4.63-68.75-32.83-139.04-70.13-209.01-55.76-104.62-111.19-208.6-40.76-317.52,13.02-20.13,44.5-42.73,90.38-67.37-37.77,28.13-76.43,57.54-92.21,95.53-42.39,102.06-1.34,179.9,49.88,275.99,40.47,75.92,73.84,138.97,82.24,216.47l-19.39,5.9h0Z"/>
    <path class="st16" d="M662.52,1682c-35.91,115.31-89.59,225.96-173.74,350.89-26.42,39.24,192.55,41.69,205.19,5.65,40.95-116.78,38.69-236.91,16.33-358.58-14.78,7.99-32.48,8.69-47.79,2.04h0Z"/>
    <path class="st4" d="M662.52,1682c-35.91,115.31-89.6,225.96-173.74,350.9-10.33,15.34,16.83,25.05,54.51,29.05,66.42-115.78,104.72-244.1,132.34-376.11-4.48-.72-8.89-1.99-13.11-3.83h0Z"/>
    <path class="st16" d="M714.11,1676.27c22.76-19.92,25.1-54.57,5.21-77.37-19.89-22.81-54.46-25.14-77.22-5.22s-25.1,54.56-5.21,77.37c19.89,22.81,54.46,25.14,77.22,5.22h0Z"/>
    <path class="st4" d="M503.39,2053.88c2.71.99,5.7,1.91,8.93,2.76,5.87-9.87,11.3-19.02,16.09-27.18,5.42-9.24,10.82-18.53,16.2-27.88,1.27-2.2.52-5.02-1.68-6.29-2.19-1.27-5.01-.52-6.28,1.68-5.23,9.1-10.63,18.39-16.18,27.84-6,10.23-11.5,19.52-16.67,28.2-.17.29-.31.59-.41.89h0v-.02h0ZM533.79,2060.78c.07-.55.25-1.11.54-1.63,9.27-16.88,17.56-33.52,25.32-50.22,7.86-16.92,15.14-33.77,22.33-50.92.98-2.34,3.67-3.45,6.01-2.47s3.44,3.68,2.46,6.02c-7.32,17.45-14.66,34.47-22.45,51.24-7.63,16.43-15.73,32.74-24.7,49.16-3.25-.35-6.43-.74-9.51-1.17h0ZM563.93,2063.51c3.18.15,6.4.28,9.63.36,11.3-23.29,21.42-46.49,30.6-70.02,9.4-24.09,17.86-48.63,25.65-74.07.74-2.43-.62-5-3.05-5.74-2.42-.74-4.99.63-5.73,3.05-7.67,25.05-16.06,49.36-25.43,73.38-9.35,23.95-19.66,47.54-31.21,71.22-.29.59-.44,1.2-.47,1.82h0ZM593.93,2063.95c-.01-.62.1-1.25.35-1.86,12.48-30.17,24.99-62.33,36.2-95.22,11.18-32.81,21.07-66.37,28.36-99.45.54-2.49,2.99-4.06,5.47-3.52s4.05,3,3.51,5.48c-7.36,33.39-17.36,67.3-28.66,100.47-11.04,32.38-23.32,64.05-35.6,93.81-3.2.13-6.41.22-9.64.29h.01ZM623.77,2062.35c-.07-.7.03-1.42.3-2.12,8.26-21.01,15.88-41.9,22.61-62.54,6.75-20.71,12.67-41.33,17.54-61.77.59-2.47,3.07-3.99,5.53-3.41,2.47.59,3.99,3.07,3.4,5.54-4.92,20.64-10.91,41.5-17.75,62.49-6.62,20.29-13.98,40.57-21.88,60.79-3.19.38-6.44.71-9.75,1.01h0ZM654.54,2058.05c3.42-.69,6.7-1.43,9.79-2.24,13.2-38.78,24.78-81.07,32.42-123.92,6.79-38.09,10.48-76.64,9.45-113.58-.08-2.54-2.2-4.55-4.74-4.46-2.54.08-4.54,2.21-4.46,4.75,1.02,36.3-2.61,74.22-9.3,111.7-7.74,43.38-19.56,86.2-33.01,125.32-.28.82-.32,1.65-.15,2.44h0Z"/>
    <path class="st4" d="M667.2,1581.23c-9.01,1.82-17.69,5.95-25.11,12.45-22.76,19.92-25.1,54.56-5.21,77.37,19.08,21.89,51.69,24.92,74.41,7.52-18.64,3.78-38.71-2.29-52.11-17.67-19.89-22.81-17.55-57.45,5.21-77.37.92-.8,1.86-1.57,2.81-2.3h0Z"/>
    <path class="st15" d="M2500.71,847.68c9.04,13.8,15.94,28.59,20.67,43.92-1.43,31.76-11.14,63.3-29.25,91.23-62.54,96.48-161.47,202.71-260.36,294.12-126.76,117.19-254.1,210.43-305.05,227.95-51.01,17.54-208.65,22.27-380.51,7.75-134.13-11.33-277.34-34.33-385.81-72.01-36.34-12.63-66.79-36.01-88.25-65.88-1.84-2.56-3.6-5.16-5.3-7.81-2.77-12.07-4.29-24.57-4.41-37.32l-.12-12.12c5.3,17.05,13.3,33.02,23.59,47.34,19.43,27.06,47.05,48.25,80.04,59.71,107.06,37.19,248.81,59.92,381.71,71.15,169.78,14.35,324.47,10.04,373.57-6.84,49.06-16.86,173.8-108.62,299.04-224.4,98.01-90.6,195.94-195.7,257.62-290.86,19.02-29.33,27.83-63.07,26.59-96.42-.37-9.91-1.63-19.78-3.76-29.5h0Z"/>
    <path class="st16" d="M1642.45,657.97c33.46-11.5,65.75-5.77,72.1,12.8,6.36,18.57-15.61,42.95-49.07,54.45s-65.75,5.77-72.1-12.8c-6.36-18.57,15.61-42.95,49.08-54.45h-.01Z"/>
  </g>
</svg>