<?xml version="1.0" encoding="UTF-8"?>
<svg xmlns="http://www.w3.org/2000/svg" xmlns:xlink="http://www.w3.org/1999/xlink" viewBox="0 0 623.95 427.19">
  <defs>
    <style>
      .cls-1, .cls-2, .cls-3, .cls-4, .cls-5, .cls-6, .cls-7, .cls-8, .cls-9, .cls-10, .cls-11, .cls-12, .cls-13, .cls-14, .cls-15, .cls-16 {
        mix-blend-mode: multiply;
      }

      .cls-1, .cls-17 {
        fill: #44526b;
      }

      .cls-18 {
        fill: #b5cee5;
      }

      .cls-2, .cls-19 {
        fill: #ffc55e;
      }

      .cls-20, .cls-21 {
        fill: #ffd4b3;
      }

      .cls-22 {
        fill: #151b26;
      }

      .cls-23 {
        fill: #8aed8a;
      }

      .cls-24 {
        fill: url(#radial-gradient-2);
      }

      .cls-25 {
        fill: #a9e1ea;
      }

      .cls-25, .cls-21 {
        opacity: .55;
      }

      .cls-3 {
        fill: #3c7bd6;
        opacity: .43;
      }

      .cls-4 {
        opacity: .9;
      }

      .cls-26 {
        fill: #b3deff;
      }

      .cls-27 {
        fill: #364254;
      }

      .cls-28 {
        stroke: #fff;
      }

      .cls-28, .cls-29, .cls-30 {
        fill: none;
        stroke-miterlimit: 10;
      }

      .cls-31 {
        fill: #e5a67c;
      }

      .cls-5 {
        fill: url(#linear-gradient-2);
      }

      .cls-6 {
        fill: url(#linear-gradient-3);
      }

      .cls-7 {
        fill: url(#linear-gradient-4);
      }

      .cls-32 {
        fill: #d33c52;
      }

      .cls-33 {
        fill: url(#radial-gradient);
      }

      .cls-34, .cls-35, .cls-36 {
        fill: #5e98ff;
      }

      .cls-37 {
        opacity: .3;
      }

      .cls-37, .cls-38, .cls-39, .cls-40, .cls-41 {
        fill: #fff;
      }

      .cls-38, .cls-13 {
        opacity: .4;
      }

      .cls-39 {
        opacity: .62;
      }

      .cls-40 {
        opacity: .77;
      }

      .cls-42 {
        fill: #fcddd0;
      }

      .cls-43, .cls-14 {
        fill: #0f3871;
      }

      .cls-44 {
        isolation: isolate;
      }

      .cls-9, .cls-13, .cls-45 {
        fill: #ffb347;
      }

      .cls-10 {
        fill: #aacaf9;
      }

      .cls-29 {
        opacity: .7;
        stroke: #ffc55e;
      }

      .cls-46, .cls-16 {
        fill: #83a1b7;
      }

      .cls-47 {
        fill: #bcbcbc;
      }

      .cls-48 {
        fill: #a3c4c1;
      }

      .cls-49 {
        fill: #283042;
      }

      .cls-50 {
        fill: #64bdff;
      }

      .cls-51 {
        fill: #fa7561;
      }

      .cls-52 {
        fill: #dbd6d2;
      }

      .cls-53 {
        fill: #74ecf3;
      }

      .cls-11 {
        fill: #a5c6e5;
      }

      .cls-12 {
        fill: url(#linear-gradient);
      }

      .cls-54 {
        fill: #60c967;
      }

      .cls-15 {
        fill: #d0d6e2;
      }

      .cls-55 {
        fill: #4baa4d;
      }

      .cls-35 {
        opacity: .09;
      }

      .cls-36 {
        opacity: .16;
      }

      .cls-56 {
        fill: #daedec;
      }

      .cls-57 {
        fill: #fdc8a8;
      }

      .cls-30 {
        stroke: #ddb6c0;
      }
    </style>
    <radialGradient id="radial-gradient" cx="278.45" cy="89.78" fx="278.45" fy="89.78" r="390.74" gradientTransform="translate(-41.92 -39.55) scale(1.15 1.1)" gradientUnits="userSpaceOnUse">
      <stop offset="0" stop-color="#f6f7fc"/>
      <stop offset=".31" stop-color="#f3f5fc"/>
      <stop offset=".51" stop-color="#eaf1fc"/>
      <stop offset=".68" stop-color="#dbeafc"/>
      <stop offset=".83" stop-color="#c6e0fc"/>
      <stop offset=".97" stop-color="#abd3fc"/>
      <stop offset="1" stop-color="#a6d1fc"/>
    </radialGradient>
    <linearGradient id="linear-gradient" x1="26.79" y1="395.29" x2="617.03" y2="395.29" gradientUnits="userSpaceOnUse">
      <stop offset="0" stop-color="#fff"/>
      <stop offset=".15" stop-color="#eff8ff"/>
      <stop offset=".35" stop-color="#e1f1ff"/>
      <stop offset=".6" stop-color="#d8eeff"/>
      <stop offset="1" stop-color="#d6edff"/>
    </linearGradient>
    <linearGradient id="linear-gradient-2" x1="33.21" y1="402.72" x2="200.77" y2="402.72" gradientUnits="userSpaceOnUse">
      <stop offset="0" stop-color="#fff"/>
      <stop offset=".35" stop-color="#e8f5ff"/>
      <stop offset=".7" stop-color="#daefff"/>
      <stop offset="1" stop-color="#d6edff"/>
    </linearGradient>
    <linearGradient id="linear-gradient-3" x1="273.58" y1="420.18" x2="464.45" y2="420.18" xlink:href="#linear-gradient-2"/>
    <radialGradient id="radial-gradient-2" cx="52.62" cy="261.43" fx="52.62" fy="261.43" r="24.28" gradientTransform="matrix(1,0,0,1,0,0)" xlink:href="#radial-gradient"/>
    <linearGradient id="linear-gradient-4" x1="1874.36" y1="740.39" x2="1940.97" y2="740.39" gradientTransform="translate(2052.29 1108.06) rotate(-180)" gradientUnits="userSpaceOnUse">
      <stop offset="0" stop-color="#a4e0bf"/>
      <stop offset="1" stop-color="#93bdea"/>
    </linearGradient>
  </defs>
  <g class="cls-44">
    <g id="Layer_4" data-name="Layer 4">
      <g>
        <path class="cls-33" d="M7.48,392.61h616.47c-22.89-42.05-93.49-92.69-92.44-162.73,1.32-87.7,62.99-127.13,55.63-161.48-28.45-132.7-168.79,39.39-336.88-30.02C1.6-64.31,86.52,192.25,30.47,249.91c-56.83,58.47-15.24,59.41-23,142.7Z"/>
        <path class="cls-12" d="M30.83,395.77c-13.82.36-5.77,6.15,250.78,4.47,17.59-.12,47.42,1.68,67.29,1.28,136.81-2.73,268.14.61,268.14-4.82,0-4.78-239-11.43-338.28-5.1-40.34,2.57-215.02,3.32-247.93,4.17Z"/>
        <path class="cls-5" d="M34.36,403.25c-3.92.4-1.64,6.85,71.19,4.98,4.99-.13,13.46,1.87,19.1,1.43,38.84-3.04,76.12.68,76.12-5.37,0-5.32-67.85-12.73-96.03-5.68-11.45,2.86-61.04,3.7-70.38,4.65Z"/>
        <path class="cls-6" d="M274.88,420.72c-4.47.4-1.86,6.85,81.1,4.98,5.69-.13,15.34,1.87,21.76,1.43,44.24-3.04,86.71.68,86.71-5.37,0-5.32-77.29-12.73-109.4-5.68-13.05,2.86-69.54,3.7-80.18,4.65Z"/>
        <path class="cls-21" d="M542.23,261.43V87.69c-28.21,12.44-47.84,70.73-71,121.27-23.16,50.54-68.01,31.4-91.48,23.1h0c-115.17-50.13-138.44,90.41-209.28,81.98-95.21-11.35-136.38,78.09-136.38,78.09l86.15-15.72s209.64-73.33,273.3-76.73c63.67-3.4,140.15-43.39,148.68-38.23Z"/>
        <line class="cls-29" x1="101.93" y1="321.64" x2="101.93" y2="378.96"/>
        <line class="cls-29" x1="158.39" y1="311.67" x2="158.39" y2="363.34"/>
        <line class="cls-29" x1="211.65" y1="301.46" x2="211.65" y2="346.03"/>
        <line class="cls-29" x1="268.11" y1="247.14" x2="268.11" y2="339.87"/>
        <line class="cls-29" x1="371.69" y1="229.11" x2="371.69" y2="346.03"/>
        <line class="cls-29" x1="428.15" y1="249.47" x2="428.15" y2="346.03"/>
        <line class="cls-29" x1="488.51" y1="167.88" x2="488.51" y2="277.36"/>
        <path class="cls-39" d="M542.23,392.12v-130.69s-50.97,0-124.29,64.11c-76.66,67.04-130.34-31.27-200.74,12.42-77.24,47.93-183.1,54.16-183.1,54.16h508.13Z"/>
        <line class="cls-30" x1="132.51" y1="371.75" x2="132.51" y2="391.54"/>
        <line class="cls-30" x1="188.97" y1="351.96" x2="188.97" y2="391.54"/>
        <line class="cls-30" x1="242.24" y1="327.64" x2="242.24" y2="391.54"/>
        <line class="cls-30" x1="402.27" y1="337.03" x2="402.27" y2="391.54"/>
        <line class="cls-30" x1="458.73" y1="295.39" x2="458.73" y2="391.54"/>
        <line class="cls-30" x1="517.13" y1="266.94" x2="517.13" y2="387.1"/>
        <line class="cls-30" x1="350.24" y1="349.85" x2="350.24" y2="391.61"/>
        <path class="cls-51" d="M34.18,394.72l-.17-5.2c1.05-.06,106.37-6.76,182.36-53.91,33.04-20.5,62.91-10.19,91.78-.21,33.46,11.56,68.07,23.52,108.71-12.03,38.09-33.31,70.07-49.07,90.2-56.43,21.91-8.02,34.64-8.11,35.17-8.11v5.2c-.5,0-51.33.82-123.21,63.68-42.1,36.82-77.57,24.57-111.86,12.72-29.5-10.19-57.37-19.82-89.13-.11-76.71,47.6-182.78,54.34-183.84,54.4Z"/>
        <line class="cls-29" x1="319.66" y1="222.69" x2="319.66" y2="351.76"/>
        <line class="cls-28" x1="298.7" y1="335.13" x2="298.7" y2="391.54"/>
        <path class="cls-20" d="M35.77,393.55l-3.35-2.71c.43-.93,10.76-23.06,33.02-44.06,20.52-19.36,55.42-41.19,105.2-35.26,28.26,3.37,49.18-18.07,71.34-40.77,32.53-33.32,69.39-71.09,138.32-41.11,1.12.4,2.29.82,3.5,1.25,24.11,8.68,64.47,23.22,85.75-23.21,4.51-9.83,8.93-20.09,13.21-30,18.22-42.2,35.42-82.06,58.85-92.38l1.24,4.94c-22,9.7-38.84,48.72-56.68,90.03-4.29,9.95-8.73,20.23-13.26,30.12-9.91,21.62-24.96,33.31-44.73,34.74-16.51,1.19-33.21-4.82-45.4-9.21-1.23-.44-2.4-.87-3.53-1.27l-.1-.04c-66.99-29.16-102.99,7.73-134.76,40.27-21.14,21.66-41.2,42.21-67.79,42.21-2.06,0-4.15-.12-6.29-.38-48.59-5.79-82.6,15.46-102.58,34.32-21.62,20.4-31.84,42.32-31.95,42.54Z"/>
        <polygon class="cls-16" points="473.63 198.13 470.26 140.39 187.16 140.39 187.16 150.19 137.3 150.19 136.85 343.33 297.23 343.33 289.87 364.29 275.09 379.93 328.5 383.44 338.11 343.33 485.22 343.33 485.61 171.09 473.63 198.13"/>
        <path class="cls-20" d="M543.54,95.86c1.21-2.77,4.88-11.45,4.88-11.45.57-1.32.09-2.4-1.05-2.41,0,0-7-.23-9.91-.07-1.39.07-2.76.6.57,8.22,3.38,7.73,4.69,7.61,5.52,5.71Z"/>
        <path class="cls-51" d="M541.88,269.05c2.01-1.77,8.2-7.39,8.2-7.39.95-.85.89-2.1-.14-2.78,0,0-6.19-4.32-8.86-5.9-1.27-.75-2.68-1.09-2.24,7.7.44,8.92,1.66,9.58,3.04,8.36Z"/>
        <g>
          <path class="cls-20" d="M259.91,158.81l20.55-14.54c-.09-.04-.18-.1-.27-.14-3.08-1.36-6.24-2.41-9.31-3.55-.15.03-.32.03-.5-.03-2.57-.87-5.16-1.58-7.87-1.01-1.94.41-3.76,1.2-5.72,1.56-5.9,1.09-11.98-.25-15.83-5.07-.73-.91.67-2.06,1.4-1.15,4.17,5.22,11.06,5.57,17.06,3.7,1.71-.53,3.26-.82,4.78-.88-2.62-1.37-5.09-3.06-7.28-5.38-.8-.85.6-1.99,1.41-1.15,6.44,6.8,15.69,8.11,23.86,11.87l.04-.03c-.85-1.51-1.49-3.16-1.89-4.89-1-4.29-.07-10.18-4.7-12.57-1.03-.53-.42-2.24.62-1.71,3.84,1.98,4.78,5.62,5.26,9.64.36,3.04,1.01,5.89,2.29,8.41l17.66-12.5c-4.16-4.44-2.89-12.05-21.06-16.24-8.15-1.88-27.14-5.48-31.41-8.86-3.85-3.46-13.25-10-17.8-6.65-7.53,5.55,1.6,15.28.72,21.22-3.2,21.53,14.68,33.59,22.28,36.83,2.21.94,4.1,1.99,5.72,3.11Z"/>
          <path class="cls-41" d="M282.22,143.02l1.58-1.12c-1.28-2.51-1.93-5.37-2.29-8.41-.48-4.02-1.42-7.66-5.26-9.64-1.04-.53-1.64,1.18-.62,1.71,4.63,2.38,3.7,8.28,4.7,12.57.4,1.74,1.04,3.38,1.89,4.89Z"/>
          <path class="cls-41" d="M256.79,141.1c1.96-.36,3.78-1.15,5.72-1.56,2.71-.57,5.3.14,7.87,1.01.18.06.35.06.5.03,3.07,1.14,6.23,2.19,9.31,3.55.09.04.18.1.27.14l1.72-1.22c-8.17-3.76-17.42-5.07-23.86-11.87-.8-.85-2.21.3-1.41,1.15,2.2,2.32,4.66,4.01,7.28,5.38-1.52.06-3.07.35-4.78.88-6,1.88-12.89,1.52-17.06-3.7-.73-.92-2.13.23-1.4,1.15,3.85,4.82,9.93,6.16,15.83,5.07Z"/>
        </g>
        <g>
          <path class="cls-20" d="M432.93,146.35c.1-.46.21-.92.32-1.38-.05-.15-.07-.31-.03-.5.55-2.66.93-5.31.03-7.93-.65-1.87-1.65-3.58-2.26-5.48-1.82-5.71-1.24-11.92,3.06-16.34.81-.83,2.13.41,1.31,1.25-4.66,4.78-4.16,11.67-1.55,17.39.74,1.63,1.22,3.13,1.47,4.63,1.03-2.77,2.41-5.43,4.44-7.9.74-.9,2.05.35,1.31,1.25-3.64,4.43-5.11,9.65-6.33,15.01h27.38c.84-9.39,2.07-23.68,4.46-27.6,2.95-4.25,8.27-14.39,4.39-18.49-6.44-6.79-14.97,3.49-20.97,3.35-21.76-.5-31.51,18.74-33.77,26.68-2.85,9.99-8.36,14.33-13.71,16.06h30.46Z"/>
          <path class="cls-41" d="M433.24,136.53c.9,2.62.52,5.27-.03,7.93-.04.19-.02.36.03.5-.11.46-.21.92-.32,1.38h1.76c1.22-5.35,2.68-10.58,6.33-15.01.74-.9-.57-2.16-1.31-1.25-2.03,2.47-3.4,5.12-4.44,7.9-.25-1.51-.73-3.01-1.47-4.63-2.61-5.72-3.11-12.6,1.55-17.39.82-.84-.5-2.08-1.31-1.25-4.3,4.42-4.88,10.62-3.06,16.34.6,1.9,1.61,3.61,2.26,5.48Z"/>
        </g>
        <g>
          <path class="cls-26" d="M246.04,72.46c-2.33,21.65,16.02,32.97,23.74,35.9,17.79,6.74,15.95,20.78,14.6,26.37-.67,2.79-.2,7.06,1.38,11.62h45.33c-1.1-1.28-2.18-2.56-3.23-3.86-2.73-3.41-4.95-7.22-6.69-11.22-.4-.93-.76-1.87-1.09-2.82-.1-.11-.18-.25-.22-.43-.08-.35-.17-.7-.26-1.04-.06-.17-.11-.34-.16-.51-3.55-10.98-16.9-11.71-25.61-5.52-.94.67-2.16-.68-1.21-1.36,4.85-3.45,11.09-5.4,17.03-4.15,3.19.67,5.86,2.17,7.89,4.29-.23-.84-.47-1.69-.73-2.52-1.41-4.6-5.4-8.59-8.58-12.08-1.54-1.69-3.2-3.28-4.98-4.7-.03-.01-.06-.02-.09-.04-.93-.56-1.8-1.2-2.59-1.9-1.66-1.08-3.41-2.01-5.27-2.74-3.14-1.23-6.33-2.15-9.45-3.17-.15.04-.32.05-.5,0-2.6-.77-5.22-1.37-7.9-.69-1.92.49-3.71,1.35-5.65,1.79-5.85,1.33-11.98.23-16.02-4.42-.76-.88.59-2.09,1.36-1.2,4.38,5.04,11.28,5.12,17.19,3.01,1.68-.6,3.22-.95,4.74-1.07-2.68-1.26-5.21-2.85-7.5-5.08-.84-.82.52-2.02,1.36-1.2,6.71,6.54,16.01,7.47,24.32,10.9.02.01.04.02.06.03-.92-1.49-1.64-3.13-2.12-4.87-1.17-4.25-.48-10.17-5.21-12.37-1.04-.48-.51-2.22.55-1.73,3.91,1.82,5,5.42,5.65,9.42.74,4.59,2.09,8.76,5.33,11.82,2.31,1.53,4.43,3.39,6.39,5.31,3.1,3.01,6.29,6.6,8.62,10.25,2.44,3.82,3.31,8.52,4.43,12.87.26.7.47,1.43.64,2.18,1.33,4.03,3.46,7.9,5.82,11.36,1.43,2.09,3.08,4,4.76,5.89-1.07-4.6-.15-9.68,2.16-13.96.91-1.68,2.14-3.18,3.51-4.51,2.01-1.95,4.6-3.19,6.35-5.44,3.83-4.94-.91-10.22-3.34-14.43-.59-1.01,1.04-1.82,1.62-.82,2.07,3.59,4.94,6.83,4.9,11.19-.04,5.43-4.83,7.67-8.33,10.84-5.05,4.58-6.94,12.5-4.41,18.71h15.19c5.65-8.31,8.72-17.98,7.93-27.22-2.96-34.31-27.28-31.71-39.28-37.22-7.64-3.5-3.02-13.11-24.22-17.11-8.22-1.55-27.34-4.38-31.74-7.59-3.98-3.3-13.64-9.45-18.05-5.93-7.3,5.85,2.22,15.21,1.57,21.18Z"/>
          <path class="cls-50" d="M309.84,106.88c2.81,3.06,5.8,6.48,6.98,10.33.26.83.5,1.68.73,2.52-2.03-2.12-4.7-3.62-7.89-4.29-1.07-.22-2.16-.31-3.24-.34.13-.42.27-.85.44-1.35.86-2.59,1.84-4.84,2.99-6.87Z"/>
          <path class="cls-50" d="M307.15,134.69c.54,3.96.67,7.85.44,11.66h23.51c-1.1-1.28-2.18-2.56-3.23-3.86-2.73-3.41-4.95-7.22-6.69-11.22-.4-.93-.76-1.87-1.09-2.82-.1-.11-.18-.25-.22-.43-.08-.35-.17-.7-.26-1.04-.06-.17-.11-.34-.16-.51-2.1-6.5-7.64-9.38-13.61-9.39-.49,1.87-.5,2.91-.4,5.19.18,4.14,1.16,8.31,1.73,12.41Z"/>
          <path class="cls-50" d="M320.96,125.31c.26.7.47,1.43.64,2.18,1.33,4.03,3.46,7.9,5.82,11.36,1.43,2.09,3.08,4,4.76,5.89-1.07-4.6-.15-9.68,2.16-13.96.91-1.68,2.14-3.18,3.51-4.51,2.01-1.95,4.6-3.19,6.35-5.44,3.83-4.94-.91-10.22-3.34-14.43-.59-1.01,1.04-1.82,1.62-.82,2.07,3.59,4.94,6.83,4.9,11.19-.04,5.43-4.83,7.67-8.33,10.84-5.05,4.58-6.94,12.5-4.41,18.71h15.19c5.65-8.31,8.72-17.98,7.93-27.22-2.21-25.58-16.28-30.64-28.28-33.84-5.31,5.13-10.66,10.21-15.52,15.78-1.15,1.32-2.19,2.68-3.13,4.15,2.1,2.27,4.1,4.73,5.69,7.23,2.44,3.82,3.31,8.52,4.43,12.87Z"/>
          <path class="cls-41" d="M271.79,93.67c1.94-.44,3.73-1.3,5.65-1.79,2.68-.68,5.3-.08,7.9.69.19.06.35.05.5,0,3.12,1.02,6.31,1.94,9.45,3.17,1.86.73,3.61,1.66,5.27,2.74.8.7,1.66,1.34,2.59,1.9.03.02.06.03.09.04,1.78,1.42,3.44,3.01,4.98,4.7,3.18,3.5,7.17,7.49,8.58,12.08.26.83.5,1.68.73,2.52-2.03-2.12-4.7-3.62-7.89-4.29-5.95-1.25-12.19.71-17.03,4.15-.95.68.27,2.02,1.21,1.36,8.71-6.19,22.06-5.46,25.61,5.52.05.17.11.34.16.51.09.34.19.68.26,1.04.04.18.12.32.22.43.33.95.69,1.89,1.09,2.82,1.74,4,3.96,7.81,6.69,11.22,1.04,1.3,2.13,2.58,3.23,3.86h3.55c-2.53-6.21-.63-14.13,4.41-18.71,3.49-3.17,8.29-5.41,8.33-10.84.04-4.36-2.83-7.6-4.9-11.19-.58-1.01-2.21-.2-1.62.82,2.42,4.2,7.16,9.49,3.34,14.43-1.74,2.25-4.33,3.49-6.35,5.44-1.37,1.33-2.6,2.83-3.51,4.51-2.32,4.28-3.24,9.36-2.16,13.96-1.68-1.89-3.33-3.8-4.76-5.89-2.36-3.45-4.49-7.33-5.82-11.36-.17-.75-.38-1.48-.64-2.18-1.13-4.34-2-9.05-4.43-12.87-2.33-3.65-5.52-7.24-8.62-10.25-1.97-1.91-4.08-3.77-6.39-5.31-3.24-3.06-4.59-7.22-5.33-11.82-.64-4-1.73-7.6-5.65-9.42-1.06-.49-1.59,1.25-.55,1.73,4.72,2.2,4.03,8.12,5.21,12.37.48,1.74,1.2,3.38,2.12,4.87-.02,0-.04-.02-.06-.03-8.32-3.43-17.62-4.36-24.32-10.9-.84-.81-2.2.39-1.36,1.2,2.29,2.23,4.82,3.82,7.5,5.08-1.52.12-3.06.47-4.74,1.07-5.92,2.12-12.82,2.04-17.19-3.01-.77-.89-2.12.32-1.36,1.2,4.04,4.66,10.18,5.75,16.02,4.42Z"/>
        </g>
        <g>
          <path class="cls-20" d="M322.05,146.35h22.81c-.67-1.46-1.35-2.91-2.01-4.36-.13-.08-.25-.2-.33-.38-1.19-2.44-2.51-4.78-4.82-6.3-1.66-1.09-3.5-1.83-5.13-2.96-4.92-3.42-8.26-8.69-7.54-14.81.14-1.16,1.94-.97,1.8.19-.77,6.63,3.83,11.78,9.38,14.72,1.58.84,2.87,1.74,3.99,2.78-.87-2.83-1.4-5.77-1.3-8.96.04-1.17,1.84-.98,1.81.19-.23,7.32,3.13,13.51,6.08,19.9h4.89c2.45-3.5,6.67-6.87,5.2-11.56-.35-1.1,1.3-1.87,1.65-.76,1.3,4.12-.63,7.35-3.15,10.52-.47.59-.91,1.19-1.34,1.8h20.4c.39-3.86-.48-8.94-5.4-16.89-4.4-7.11-15.21-23.14-15.81-28.55-.25-5.17-2.22-16.45-7.8-17.32-9.24-1.45-9.73,11.89-14.57,15.44-17.55,12.88-13.53,34.07-10.48,41.74.79,1.98,1.33,3.83,1.68,5.58Z"/>
          <path class="cls-41" d="M351.67,146.35h2.36c.42-.6.87-1.2,1.34-1.8,2.52-3.17,4.44-6.4,3.15-10.52-.35-1.11-1.99-.34-1.65.76,1.48,4.69-2.75,8.06-5.2,11.56Z"/>
          <path class="cls-41" d="M332.57,132.34c1.64,1.14,3.48,1.88,5.13,2.96,2.31,1.53,3.63,3.86,4.82,6.3.09.18.2.29.33.38.66,1.45,1.34,2.9,2.01,4.36h1.92c-2.95-6.39-6.32-12.58-6.08-19.9.04-1.17-1.77-1.36-1.81-.19-.1,3.19.43,6.13,1.3,8.96-1.12-1.04-2.41-1.94-3.99-2.78-5.55-2.94-10.15-8.09-9.38-14.72.14-1.16-1.67-1.35-1.8-.19-.71,6.13,2.62,11.39,7.54,14.81Z"/>
        </g>
        <g>
          <path class="cls-19" d="M497.49,220.36c-20.67-8.21-55.48-58.72-53.34-67.01,2.15-8.28,22.27-16.91,30.55-14.77,8.28,2.15,10.69,53.43,35.71,70.39,7.08,4.81-4.97,14.55-12.92,11.38Z"/>
          <path class="cls-2" d="M493.53,215.26c-7.15-5.69-12.51-12.64-18.17-19.53-7.03-8.58-14.34-19.64-9.28-31.34,2.78-6.45,9.51-9.02,16.36-9.12-2.68-9.18-4.85-15.94-7.74-16.69-8.28-2.14-28.4,6.49-30.55,14.77-2.14,8.29,32.67,58.8,53.34,67.01,3.96,1.57,8.93-.05,12.06-2.67-5.13,1.99-10.84,1.69-16.02-2.42Z"/>
          <path class="cls-49" d="M390.4,132.79c6.55,21.2,23.98,34.65,45.87,27.9,21.88-6.75,34.32-29.41,27.78-50.62-6.54-21.2-29.58-32.93-51.46-26.17-21.88,6.74-28.72,27.68-22.18,48.89Z"/>
          <g>
            <path class="cls-34" d="M430.42,78.39l-17.65,5.45c-8.04,2.48-9.25,21.68-2.71,42.88,6.54,21.2,18.36,36.39,26.39,33.9,0,0,16.53-6.21,17.37-6.36l-23.4-75.87Z"/>
            <path class="cls-43" d="M437.3,76.27l-17.65,5.45c-8.03,2.48-9.25,21.67-2.71,42.88,6.54,21.2,17.81,36.14,25.85,33.67,15.55-4.89,15.59-5.7,17.92-6.13l-23.4-75.87Z"/>
            <path class="cls-19" d="M500.52,18.09c-9.7,2.99,2.41,37.94-78.04,62.75-8.04,2.48-9.25,21.68-2.71,42.88,6.54,21.2,18.36,36.39,26.4,33.9,57.29-17.67,94.36,9.58,99.83,7.89,14.16-4.36,14.43-44.26,2.91-81.63-11.53-37.36-34.22-70.17-48.38-65.8Z"/>
            <path class="cls-2" d="M510.48,20.01c2.37,2.89,3.26,6.89,2.43,10.82-.44,2.07-.85,4.15-1.18,6.24-.05.35-.2,1.43-.28,2-.09.65-.17,1.29-.24,1.94-.45,4.11-21.01-3.58-21.24.54,0,0-7.56,19.01,4.28,61.83,3.02,10.92,8.02,32.3-7.59,35.87-11.68,2.68-24.99,4.91-39.59,9.25-8.7,2.59-12.72,3.37-12.72,3.37,4.15,4.59,8.33,6.82,11.81,5.74,57.29-17.67,94.36,9.58,99.83,7.89,14.16-4.36,14.43-44.26,2.91-81.63-9.09-29.45-25.11-56.07-38.42-63.88Z"/>
            <path class="cls-19" d="M556.91,81.42c13.19,42.76,10.75,81.47-5.46,86.48-16.21,4.99-40.04-25.61-53.23-68.37-13.19-42.76-10.74-81.47,5.46-86.47,16.21-5,40.04,25.61,53.23,68.37Z"/>
            <path class="cls-19" d="M507.31,17.76c-11.01,3.4-14.24,26.15-9.15,54.94,11.97,6.1,24.44,2.26,28.41,1.03,4.46-1.38,10.39,4.97,13.23,14.18,2.84,9.21,1.52,17.79-2.94,19.17-3.92,1.2-17.45,5.38-23.54,14.21,11.93,25.96,27.13,42.38,37.97,39.04,13.95-4.31,15.41-39.71,3.27-79.08-12.14-39.36-33.3-67.79-47.25-63.49Z"/>
            <path class="cls-2" d="M507.31,17.76c-11.01,3.4-14.24,26.15-9.15,54.94,11.97,6.1,24.44,2.26,28.41,1.03,4.46-1.38,10.39,4.97,13.23,14.18,2.84,9.21,1.52,17.79-2.94,19.17-3.92,1.2-17.45,5.38-23.54,14.21,11.93,25.96,27.13,42.38,37.97,39.04,13.95-4.31,15.41-39.71,3.27-79.08-12.14-39.36-33.3-67.79-47.25-63.49Z"/>
            <path class="cls-2" d="M507.31,17.76c-11.01,3.4-14.24,26.15-9.15,54.94,11.97,6.1,24.44,2.26,28.41,1.03,4.46-1.38,10.39,4.97,13.23,14.18,2.84,9.21,1.52,17.79-2.94,19.17-3.92,1.2-17.45,5.38-23.54,14.21,11.93,25.96,27.13,42.38,37.97,39.04,13.95-4.31,15.41-39.71,3.27-79.08-12.14-39.36-33.3-67.79-47.25-63.49Z"/>
            <path class="cls-37" d="M516.88,128.64l2.17,4.16c18.08,3.98,39.16,21.28,39.16,21.28,1.72-3.09,2.95-7.15,3.7-11.98-4.86-2.21-26.58-11.2-45.02-13.46Z"/>
            <path class="cls-37" d="M562.25,139.51c.23-2.02.38-4.16.45-6.4-13.33-4.92-46.91-8.79-48.05-8.91.77,1.69,0,0,.8,1.61,21.2,2.6,42.29,11.65,46.8,13.69Z"/>
            <path class="cls-38" d="M481.97,52.77c1.61-1.43-14.35,17.29-42.77,27.77-16.36,6.04-11.36,9.55-15.77,17.05-4.88,8.28-4.78-7.6-1.04-12.47,1.02-1.33,4.72-3.47,13.7-6.43,8.97-2.95,29.23-11.1,45.88-25.93Z"/>
            <path class="cls-49" d="M525.86,73.94c-4.57,1.38-16.38,4.55-27.74-1.23,1.36,7.7,3.31,15.83,5.88,24.13,2.71,8.78,5.86,17.01,9.29,24.46,5.77-8.38,18.26-12.57,22.86-14.01l-10.29-33.36Z"/>
            <path class="cls-22" d="M525.87,73.97c-10.04,4-2.91,23.45-3.76,28.25-.71,4.03-3.03,7.57-6.37,9.93-2.2,1.55-4.7,3.56-7.34-2.53,2.06,5.83,4.85,11.74,4.89,11.68,6.3-8.58,17.93-12.47,22.86-14.01l-10.28-33.32Z"/>
            <path class="cls-19" d="M523.59,92.9c2.85,9.21,8.77,15.56,13.23,14.18,4.47-1.38,5.78-9.96,2.95-19.17-2.84-9.21-8.77-15.56-13.23-14.18-4.47,1.38-5.79,9.96-2.95,19.17Z"/>
            <path class="cls-2" d="M541.01,93.92c.31,6.49-3.51,10.84-7.45,8.94-7.6-3.67-14.48-24.59-6.91-29.15-.04.01-.08.02-.11.03-4.47,1.38-5.79,9.96-2.95,19.17,2.85,9.21,8.77,15.56,13.23,14.18,3.51-1.09,5.08-6.64,4.2-13.45,0,.1-.02.18-.01.28Z"/>
          </g>
          <path class="cls-49" d="M474.03,171.44c.5,1.62,2.21,2.52,3.82,2.02l8.62-2.66c1.61-.51,2.51-2.21,2.02-3.82h0c-.5-1.62-2.2-2.51-3.82-2.01l-8.62,2.66c-1.61.5-2.52,2.2-2.02,3.81h0Z"/>
          <path class="cls-49" d="M479.71,183.32c.51,1.39,2.04,2.1,3.42,1.59l7.4-2.72c1.38-.5,2.09-2.04,1.58-3.42h0c-.5-1.39-2.03-2.09-3.42-1.59l-7.4,2.72c-1.38.51-2.09,2.04-1.59,3.42h0Z"/>
          <path class="cls-49" d="M486.27,193.2c.43,1.16,1.72,1.76,2.87,1.33l6.2-2.27c1.16-.43,1.76-1.71,1.33-2.87h0c-.43-1.16-1.71-1.76-2.87-1.33l-6.2,2.28c-1.16.42-1.75,1.7-1.33,2.86h0Z"/>
        </g>
        <rect class="cls-43" x="133.99" y="129.59" width="341.85" height="209.36"/>
        <rect class="cls-50" x="125.59" y="129.59" width="341.85" height="209.36"/>
        <rect class="cls-41" x="141.18" y="135.77" width="310.68" height="190.27"/>
        <polygon class="cls-50" points="308.94 385.54 267.3 385.54 275.7 338.95 317.34 338.95 308.94 385.54"/>
        <path class="cls-43" d="M314.22,338.95h-38.52l-7.99,44.3c14.45-15.75,32.43-28.14,46.51-44.3Z"/>
        <path class="cls-43" d="M285.95,385.54h22.99l4.49-24.9c-9.1,8.38-18.75,16.25-27.48,24.9Z"/>
        <path class="cls-50" d="M355.76,393.28c-2.22-9.01-31.27-16.14-66.8-16.14s-64.58,7.13-66.8,16.14h133.6Z"/>
        <path class="cls-24" d="M85.34,271.85c-.92-1.62-2.66-2.71-4.65-2.71-1.25,0-2.4.43-3.31,1.15-1.23-2.46-3.76-4.16-6.7-4.16-1.44,0-2.78.41-3.92,1.12-2.12-3.4-5.89-5.67-10.2-5.67-.8,0-1.58.08-2.33.23.15-.64.23-1.3.23-1.99,0-4.86-3.94-8.8-8.8-8.8s-8.8,3.94-8.8,8.8c0,.1.01.2.02.3-3.32.88-5.87,3.64-6.43,7.07-.95-.4-1.99-.62-3.09-.62-3.45,0-6.37,2.21-7.46,5.28h65.44Z"/>
        <path class="cls-57" d="M64.96,232.82c2.28-.87,4.79,1.01,5.42,2.22.63,1.22-4.46,1.43-6.4,2.45-1.95,1.01-3.25-.22-3.87-1.43-.63-1.22,1.69-2.02,4.86-3.24Z"/>
        <g class="cls-8">
          <path class="cls-46" d="M164.85,339.02v-92.28c0-7.64-5.92-13.89-13.15-13.89h-69.65c-7.23,0-13.15,6.25-13.15,13.89v92.28h95.95Z"/>
        </g>
        <path class="cls-43" d="M154.29,388.26c0,7.64-5.92,13.89-13.15,13.89h-69.65c-7.23,0-13.15-6.25-13.15-13.89v-146.8c0-7.64,5.92-13.89,13.15-13.89h69.65c7.23,0,13.15,6.25,13.15,13.89v146.8Z"/>
        <path class="cls-41" d="M151.81,384.47c0,7.25-5.61,13.18-12.47,13.18h-66.05c-6.86,0-12.47-5.93-12.47-13.18v-139.22c0-7.25,5.61-13.18,12.47-13.18h66.05c6.86,0,12.47,5.93,12.47,13.18v139.22Z"/>
        <path class="cls-35" d="M151.81,384.47c0,7.25-5.61,13.18-12.47,13.18h-66.05c-6.86,0-12.47-5.93-12.47-13.18v-139.22c0-7.25,5.61-13.18,12.47-13.18h66.05c6.86,0,12.47,5.93,12.47,13.18v139.22Z"/>
        <path class="cls-36" d="M126.97,232.57s-40.54-.05-53.55-.05c-12.09,0-12.54,12.64-12.54,15.9v51.77c22.86-22.86,43.22-44.76,66.09-67.62Z"/>
        <path class="cls-3" d="M147.28,276.64h-81.56c-.75,0-1.36-.61-1.36-1.36h0c0-.75.61-1.36,1.36-1.36h81.56c.75,0,1.36.61,1.36,1.36h0c0,.75-.61,1.36-1.36,1.36Z"/>
        <path class="cls-15" d="M124.25,239.28c0,1.12-.91,2.03-2.03,2.03h-3.42c-1.12,0-2.03-.91-2.03-2.03h0c0-1.12.91-2.03,2.03-2.03h3.42c1.12,0,2.03.91,2.03,2.03h0Z"/>
        <path class="cls-15" d="M85.21,239.28c0,1.12-.91,2.03-2.03,2.03h-10.63c-1.12,0-2.03-.91-2.03-2.03h0c0-1.12.91-2.03,2.03-2.03h10.63c1.12,0,2.03.91,2.03,2.03h0Z"/>
        <path class="cls-15" d="M141.65,239.28c0,1.12-.91,2.03-2.03,2.03h-10.62c-1.12,0-2.03-.91-2.03-2.03h0c0-1.12.91-2.03,2.03-2.03h10.62c1.12,0,2.03.91,2.03,2.03h0Z"/>
        <path class="cls-36" d="M151.67,343.92v-4.8c-2.85,2.44-5.7,4.87-8.54,7.31-14.2,12.15-43.87,38.57-58.07,50.72h4.61c15.18-12.99,46.83-40.24,62.01-53.22Z"/>
        <path class="cls-36" d="M150.92,318.45v-38.42c-1.19,1-90.17,82.45-90.17,82.45-.15.13-.18,14.56-.18,21.27s6.13,10.66,6.13,10.66l84.22-75.96Z"/>
        <path class="cls-31" d="M154.77,369c.12-.16.29-.19.44-.15.61-1.08,1.33-2.1,2.05-3.13,1.59-2.29,2.81-4.66,3.48-7.39.55-2.2.88-4.47,1.32-6.69-2.06-2.09-5.16-2.82-7.72-1.26-2.77,1.69-2.84,11.28-.8,16.01l.53,3c.41-.57.29.18.7-.4Z"/>
        <path class="cls-42" d="M154.07,369.4c5.71-.66,10.8-10.29,10.8-14.01,0-5.79-5.74-9.52-10-6.92-2.77,1.69-2.84,11.26-.8,15.98v4.95Z"/>
        <g class="cls-4">
          <path class="cls-18" d="M115.68,347.73h.03v-.02h-.03s0,.02,0,.02Z"/>
        </g>
        <g class="cls-8">
          <path class="cls-53" d="M117.6,348.87h.03v-.02h-.04s0,.02,0,.02Z"/>
          <path class="cls-11" d="M117.63,348.87h-.03s0-.02,0-.02h.04v.02Z"/>
        </g>
        <g class="cls-4">
          <path class="cls-18" d="M122.29,337.59h.03v-.02h-.03s0,.01,0,.02Z"/>
        </g>
        <g class="cls-8">
          <path class="cls-53" d="M123.78,338.47h.03v-.02h-.03s0,.01,0,.02Z"/>
          <path class="cls-11" d="M123.8,338.47h-.03s0-.01,0-.02h.03v.02Z"/>
        </g>
        <path class="cls-41" d="M162.02,353.56c.02-2.4-1.47-4.36-2.54-4.37q-2.26-.02-2.3,4.62c-.04,4.54-.09,4.05,2.44,4.08,1.07.01,2.38-1.93,2.4-4.33Z"/>
        <g class="cls-4">
          <path class="cls-18" d="M114.02,350.14h.03v-.02h-.04s0,.02,0,.02Z"/>
        </g>
        <g class="cls-8">
          <path class="cls-53" d="M116.02,351.33h.03v-.02h-.04s0,.02,0,.02Z"/>
          <path class="cls-11" d="M116.05,351.33h-.03s0-.02,0-.02h.04v.02Z"/>
        </g>
        <path class="cls-16" d="M154.14,360.59s3.38-.23,5.49-2.71c2.11-2.48,17.29,4.58,17.29,4.58h-10.2v-10.2h-19.45v-2.83h.04v-55.55c0-2.37-1.92-4.29-4.29-4.29-.26,0-.52.03-.77.07l-75.63-14.51c2,.36,2.09,5.23,2.09,7.34l-2.37,78.1c0,6.44,2.3,8.81,7.71,8.81h28.92c.1,10.79,8.36,10.79,8.36,10.79h42.82v-19.6Z"/>
        <rect class="cls-43" x="79.85" y="335.53" width="51.49" height="26.84"/>
        <path class="cls-41" d="M149.4,279.21c0-2.28-1.85-4.13-4.13-4.13-.25,0-.5.03-.74.07h-77.91c1.93.35,3.39,2.03,3.39,4.06h0v53.52h.02v19.17c-.01.21-.02.43-.02.64s0,.43.02.64v.03h0c.34,5.12,4.6,9.16,9.81,9.16s9.48-4.06,9.81-9.19h.02v-7.9l59.68-.85v-11.71h.04v-53.52Z"/>
        <path class="cls-43" d="M89.68,345.28c0,5.43,0,7.57,0,7.57,3.66,0,17.99,2.66,19.69-.31,0,0-.02-5.49-.02-7.26,0-5.43-4.4-9.83-9.83-9.83s-9.83,4.4-9.83,9.83Z"/>
        <path class="cls-41" d="M158.27,345.28c0,5.43,4.4,9.83,9.83,9.83s9.83-4.4,9.83-9.83-4.4-9.83-9.83-9.83-9.83,4.4-9.83,9.83Z"/>
        <rect class="cls-41" x="109.34" y="345.28" width="68.59" height="20.52"/>
        <path class="cls-41" d="M109.34,350.9h58.76v-15.45h-68.58s3.44-.4,6.8,2.74c3.04,2.84,3.02,7.09,3.02,7.09v5.62Z"/>
        <rect class="cls-43" x="114.52" y="365.8" width="63.41" height="5.21"/>
        <path class="cls-41" d="M109.31,365.8c0,2.88,2.33,5.21,5.21,5.21s5.21-2.33,5.21-5.21-2.33-5.21-5.21-5.21-5.21,2.33-5.21,5.21Z"/>
        <path class="cls-43" d="M175.33,368.41c0,1.44,1.17,2.61,2.61,2.61s2.61-1.17,2.61-2.61-1.17-2.61-2.61-2.61-2.61,1.17-2.61,2.61Z"/>
        <rect class="cls-43" x="136.77" y="283.57" width="6.69" height="27.03"/>
        <path class="cls-7" d="M118.24,364.3s1.17,2.7-1.32,5.1c-2.15,2.09-5.6.49-5.6.49.89.72,2.03,1.15,3.27,1.15,2.87,0,5.21-2.33,5.21-5.19h58.13v-.82l-59.69-.73Z"/>
        <path class="cls-47" d="M97.81,321.03h-17.09c-.47,0-.85-.38-.85-.85s.38-.85.85-.85h17.09c.47,0,.85.38.85.85s-.38.85-.85.85Z"/>
        <path class="cls-47" d="M91.81,327.81h-11.08c-.47,0-.85-.38-.85-.85s.38-.85.85-.85h11.08c.47,0,.85.38.85.85s-.38.85-.85.85Z"/>
        <path class="cls-47" d="M116.29,327.81h-20.22c-.47,0-.85-.38-.85-.85s.38-.85.85-.85h20.22c.47,0,.85.38.85.85s-.38.85-.85.85Z"/>
        <path class="cls-47" d="M141.09,327.81h-20.29c-.47,0-.85-.38-.85-.85s.38-.85.85-.85h20.29c.47,0,.85.38.85.85s-.38.85-.85.85Z"/>
        <path class="cls-51" d="M109.24,334.45h-18.79c-.47,0-.85-.38-.85-.85s.38-.85.85-.85h18.79c.47,0,.85.38.85.85s-.38.85-.85.85Z"/>
        <path class="cls-51" d="M86.27,334.45h-5.22c-.47,0-.85-.38-.85-.85s.38-.85.85-.85h5.22c.47,0,.85.38.85.85s-.38.85-.85.85Z"/>
        <path class="cls-51" d="M131.39,334.45h-16.67c-.47,0-.85-.38-.85-.85s.38-.85.85-.85h16.67c.47,0,.85.38.85.85s-.38.85-.85.85Z"/>
        <path class="cls-51" d="M91.79,339.26h-11.06c-.47,0-.85.38-.85.85s.38.85.85.85h10.11c.23-.62.54-1.19.95-1.71Z"/>
        <path class="cls-47" d="M148.97,346.72h-15.64c-.43,0-.78-.35-.78-.78s.35-.78.78-.78h15.64c.43,0,.78.35.78.78s-.35.78-.78.78Z"/>
        <path class="cls-47" d="M156.46,352.05h-23.13c-.43,0-.78-.35-.78-.78s.35-.78.78-.78h23.13c.43,0,.78.35.78.78s-.35.78-.78.78Z"/>
        <path class="cls-47" d="M173.13,352.05h-12.38c-.43,0-.78-.35-.78-.78s.35-.78.78-.78h12.38c.43,0,.78.35.78.78s-.35.78-.78.78Z"/>
        <path class="cls-47" d="M143.47,357.63h-10.15c-.43,0-.78-.35-.78-.78s.35-.78.78-.78h10.15c.43,0,.78.35.78.78s-.35.78-.78.78Z"/>
        <path class="cls-47" d="M151.19,357.63h-3.82c-.43,0-.78-.35-.78-.78s.35-.78.78-.78h3.82c.43,0,.78.35.78.78s-.35.78-.78.78Z"/>
        <path class="cls-47" d="M173.13,357.63h-17.99c-.43,0-.78-.35-.78-.78s.35-.78.78-.78h17.99c.43,0,.78.35.78.78s-.35.78-.78.78Z"/>
        <g>
          <path class="cls-34" d="M115.02,359v-14.74h14.74v14.74h-14.74ZM128.35,357.6v-11.93h-11.93v11.93h11.93Z"/>
          <path class="cls-34" d="M129.18,358.43h-13.59v-13.59h13.59v13.59ZM116.51,357.51h11.75v-11.76h-11.75v11.76Z"/>
        </g>
        <g>
          <polygon class="cls-34" points="117.12 351.3 118.14 350.28 121.58 353.49 126.49 347.27 127.69 348.31 121.78 355.95 117.12 351.3"/>
          <polygon class="cls-34" points="121.72 355.08 117.94 351.3 118.59 350.65 121.64 353.7 126.15 347.86 126.88 348.42 121.72 355.08"/>
        </g>
        <path class="cls-34" d="M79.59,302.76c.24,6.33,5.57,11.28,11.9,11.04,6.34-.24,11.28-5.57,11.04-11.9-.24-6.34-5.57-11.28-11.9-11.04l.43,11.47-11.47.43Z"/>
        <rect class="cls-20" x="109.34" y="292.81" width="6.69" height="17.77"/>
        <rect class="cls-51" x="118.48" y="288.95" width="6.69" height="21.64"/>
        <rect class="cls-34" x="127.62" y="300.44" width="6.69" height="10.15"/>
        <path class="cls-27" d="M115.94,313.65c0,.16-.12.29-.26.29h-6.1c-.14,0-.26-.14-.26-.3h0c0-.16.12-.3.26-.29h6.09c.14,0,.26.14.26.3h0Z"/>
        <path class="cls-27" d="M125.08,313.65c0,.16-.12.29-.26.29h-6.1c-.14,0-.26-.14-.26-.3h0c0-.16.12-.3.26-.3h6.1c.14,0,.26.14.26.3h0Z"/>
        <path class="cls-27" d="M134.26,313.66c0,.16-.12.29-.26.29h-6.09c-.14,0-.26-.13-.26-.3h0c0-.16.12-.29.26-.29h6.1c.14,0,.26.14.26.3h0Z"/>
        <path class="cls-27" d="M143.41,313.66c0,.16-.12.29-.26.29h-6.09c-.14,0-.26-.14-.26-.3h0c0-.16.12-.3.26-.3h6.09c.14,0,.26.14.26.3h0Z"/>
        <path class="cls-10" d="M176.84,139.57v170.8c0,7.04,5.71,12.73,12.74,12.73h237.81c7.03,0,12.74-5.7,12.74-12.73v-170.8H176.84Z"/>
        <g>
          <path class="cls-41" d="M182.47,118.9h238.38c7.05,0,12.77,5.72,12.77,12.77v166.54c0,7.05-5.72,12.77-12.77,12.77h-238.39c-7.05,0-12.77-5.72-12.77-12.77v-166.54c0-7.05,5.72-12.77,12.77-12.77Z"/>
          <path class="cls-17" d="M433.63,142.45v-10.78c0-7.05-5.71-12.77-12.77-12.77h-238.39c-7.05,0-12.77,5.71-12.77,12.77v10.78h263.92Z"/>
          <path class="cls-1" d="M387.72,130.68c0,2.65,2.15,4.79,4.79,4.79s4.79-2.15,4.79-4.79-2.15-4.78-4.79-4.78-4.79,2.14-4.79,4.78Z"/>
          <path class="cls-1" d="M405.81,130.68c0,2.65,2.14,4.79,4.79,4.79s4.79-2.15,4.79-4.79-2.14-4.78-4.79-4.78-4.79,2.14-4.79,4.78Z"/>
          <path class="cls-1" d="M369.33,130.68c0,2.65,2.15,4.79,4.79,4.79s4.79-2.15,4.79-4.79-2.14-4.78-4.79-4.78-4.79,2.14-4.79,4.78Z"/>
          <rect class="cls-23" x="173.94" y="147.14" width="255.44" height="52.9"/>
          <path class="cls-41" d="M265.38,130.68c0,2.75-2.23,4.98-4.98,4.98h-62.13c-2.75,0-4.98-2.23-4.98-4.98h0c0-2.75,2.23-4.98,4.98-4.98h62.13c2.75,0,4.98,2.23,4.98,4.98h0Z"/>
          <path class="cls-55" d="M298.45,158.72c0,2.31-1.87,4.18-4.18,4.18h-50.87c-2.31,0-4.18-1.87-4.18-4.18h0c0-2.31,1.87-4.18,4.18-4.18h50.87c2.31,0,4.18,1.87,4.18,4.18h0Z"/>
          <path class="cls-54" d="M411.19,171.25c0,1.29-1.05,2.34-2.34,2.34h-167.29c-1.29,0-2.34-1.05-2.34-2.34h0c0-1.29,1.05-2.34,2.34-2.34h167.29c1.29,0,2.34,1.05,2.34,2.34h0Z"/>
          <path class="cls-54" d="M411.19,181.28c0,1.29-1.05,2.34-2.34,2.34h-167.29c-1.29,0-2.34-1.05-2.34-2.34h0c0-1.29,1.05-2.34,2.34-2.34h167.29c1.29,0,2.34,1.05,2.34,2.34h0Z"/>
          <path class="cls-54" d="M358.46,191.31c0,1.29-1.05,2.34-2.34,2.34h-114.56c-1.29,0-2.34-1.05-2.34-2.34h0c0-1.29,1.05-2.34,2.34-2.34h114.56c1.29,0,2.34,1.05,2.34,2.34h0Z"/>
          <path class="cls-41" d="M191.46,174.38c.1,11.15,9.21,20.1,20.35,20.01,11.15-.1,20.1-9.21,20.01-20.36-.09-11.14-9.21-20.1-20.35-20.01-11.15.1-20.1,9.21-20.01,20.35Z"/>
          <path class="cls-48" d="M298.45,208.94c0,2.31-1.87,4.18-4.18,4.18h-50.87c-2.31,0-4.18-1.87-4.18-4.18h0c0-2.31,1.87-4.18,4.18-4.18h50.87c2.31,0,4.18,1.87,4.18,4.18h0Z"/>
          <path class="cls-56" d="M411.19,221.48c0,1.29-1.05,2.34-2.34,2.34h-167.29c-1.29,0-2.34-1.05-2.34-2.34h0c0-1.29,1.05-2.34,2.34-2.34h167.29c1.29,0,2.34,1.05,2.34,2.34h0Z"/>
          <path class="cls-56" d="M411.19,231.5c0,1.29-1.05,2.34-2.34,2.34h-167.29c-1.29,0-2.34-1.05-2.34-2.34h0c0-1.29,1.05-2.34,2.34-2.34h167.29c1.29,0,2.34,1.05,2.34,2.34h0Z"/>
          <path class="cls-56" d="M358.46,241.53c0,1.29-1.05,2.34-2.34,2.34h-114.56c-1.29,0-2.34-1.05-2.34-2.34h0c0-1.29,1.05-2.34,2.34-2.34h114.56c1.29,0,2.34,1.05,2.34,2.34h0Z"/>
          <path class="cls-56" d="M191.46,224.6c.1,11.15,9.21,20.1,20.35,20.01,11.15-.1,20.1-9.21,20.01-20.36-.09-11.14-9.21-20.1-20.35-20.01-11.15.1-20.1,9.21-20.01,20.35Z"/>
          <path class="cls-48" d="M298.45,257.75c0,2.31-1.87,4.18-4.18,4.18h-50.87c-2.31,0-4.18-1.87-4.18-4.18h0c0-2.31,1.87-4.18,4.18-4.18h50.87c2.31,0,4.18,1.87,4.18,4.18h0Z"/>
          <path class="cls-56" d="M411.19,270.28c0,1.29-1.05,2.34-2.34,2.34h-167.29c-1.29,0-2.34-1.05-2.34-2.34h0c0-1.29,1.05-2.34,2.34-2.34h167.29c1.29,0,2.34,1.05,2.34,2.34h0Z"/>
          <path class="cls-56" d="M411.19,280.31c0,1.29-1.05,2.34-2.34,2.34h-167.29c-1.29,0-2.34-1.05-2.34-2.34h0c0-1.29,1.05-2.34,2.34-2.34h167.29c1.29,0,2.34,1.05,2.34,2.34h0Z"/>
          <path class="cls-56" d="M358.46,290.34c0,1.29-1.05,2.34-2.34,2.34h-114.56c-1.29,0-2.34-1.05-2.34-2.34h0c0-1.29,1.05-2.34,2.34-2.34h114.56c1.29,0,2.34,1.04,2.34,2.34h0Z"/>
          <path class="cls-56" d="M191.46,273.41c.1,11.15,9.21,20.1,20.35,20.01,11.15-.1,20.1-9.21,20.01-20.36-.09-11.15-9.21-20.1-20.35-20.01-11.15.1-20.1,9.21-20.01,20.35Z"/>
          <path class="cls-54" d="M211.04,183.62c-.22.04-.44.06-.66.06-.85.07-1.66-.17-2.23-.65l-8.09-6.99c-.41-.36-.65-.86-.67-1.44-.03-.82.36-1.73,1.01-2.39.41-.41.85-.66,1.33-.75.71-.13,1.44.1,2.1.68l6.19,5.26,6.74-9.43s4.25-5.97,6.13-6.32c.2-.04.38-.03.54.04.26.1.46.31.56.59.54,1.61-2.61,6.8-2.64,6.85l-8.24,13.15c-.44.68-1.2,1.17-2.08,1.34h0Z"/>
        </g>
        <g class="cls-8">
          <path class="cls-46" d="M373.81,288.49c6.19,4.32,13.3,5.74,19.95,4.57l30.56,45.8,33.5-.53-45.54-58.29c.08-.13.16-.25.23-.38,3.75-6.46,4.93-13.92,3.83-21,11.41-16.18,16.97-37.25,13.96-59.3-5.99-43.77-43.47-74.81-83.74-69.33-40.26,5.47-68.05,45.39-62.06,89.16,5.99,43.77,43.47,74.81,83.74,69.33,1.54-.21,3.05-.48,4.55-.79.34.26.67.53,1.03.78ZM293.87,217.9c-5.22-38.14,19-72.93,54.08-77.7,35.08-4.77,67.76,22.28,72.97,60.42,5.22,38.14-19,72.93-54.08,77.7-35.09,4.77-67.76-22.28-72.97-60.42Z"/>
        </g>
        <g>
          <path class="cls-43" d="M430.3,362.74l-55.11-94.04c.49-.05.99-.09,1.48-.16,5.07-.79,9.35-3.7,12.35-7.65,2.51-1.24,4.71-3.02,6.51-5.17l55.58,94.82c1.46,2.49.62,5.72-1.87,7.17l-11.76,6.89c-2.49,1.46-5.72.62-7.17-1.87Z"/>
          <path class="cls-14" d="M437.54,340.34c-5.98-12.52-23.44-42.9-30.04-49.64-6.84-6.99-11.4-2.93-19.36.12l-12.96-22.12c.49-.05.99-.09,1.48-.16,5.07-.79,9.35-3.7,12.35-7.65,2.51-1.24,4.71-3.02,6.51-5.17l55.58,94.82c1.46,2.49.62,5.72-1.87,7.17l-11.76,6.89c-1.22.71-2.61.87-3.89.56,11.42-11.91,10.51-11.11,3.96-24.83Z"/>
          <path class="cls-34" d="M354.27,273.33c4.83,1.09,10.04.63,14.5-1.53,15.26-7.42,29.17-17.46,34.71-33.88,1.53,2.72,2.67,5.72,3.32,8.95,3.33,16.51-7.36,32.6-23.87,35.92-10.94,2.2-21.68-1.74-28.66-9.46Z"/>
          <path class="cls-43" d="M354.4,273.56c4.83,1.09,10.04.63,14.5-1.53,15.26-7.42,29.17-17.46,34.71-33.88,1.53,2.72,2.67,5.72,3.32,8.95,3.33,16.51-7.36,32.6-23.87,35.92-10.94,2.2-21.68-1.74-28.66-9.46Z"/>
          <g>
            <path class="cls-43" d="M409.19,241.48c21.34-38.68,7.29-87.33-31.39-108.67-38.68-21.34-87.33-7.29-108.67,31.39-21.34,38.68-7.29,87.33,31.39,108.67,38.68,21.34,87.33,7.29,108.67-31.39ZM305.48,263.86c-33.7-18.6-45.95-61-27.35-94.7,18.6-33.7,61-45.95,94.7-27.35,33.7,18.6,45.95,61,27.35,94.7-18.6,33.7-61,45.95-94.7,27.35Z"/>
            <circle class="cls-25" cx="339.16" cy="202.83" r="69.7" transform="translate(-44.09 299.23) rotate(-45)"/>
          </g>
          <path class="cls-40" d="M338.25,272.11c-23.98-.26-46.3-12.96-58.76-33.45,19.58,11.17,39.15,22.34,58.76,33.45Z"/>
          <path class="cls-40" d="M269.57,196.81c1.22-15.05,7.3-29.22,17.1-40.4,39.48,22.63,79.07,45.06,118.65,67.51-4.59,14.1-13.63,26.54-25.9,35.28-36.73-20.6-73.24-41.58-109.85-62.39Z"/>
          <path class="cls-40" d="M315.95,138.1c1.56-.55,3.14-1.07,4.76-1.52,37.1-10.26,75.5,11.5,85.76,48.6.47,1.7.85,3.39,1.18,5.09-30.59-17.34-61.18-34.72-91.71-52.17Z"/>
        </g>
        <g>
          <path class="cls-45" d="M291.31,357.9c-.43-3.38,1.97-6.47,5.35-6.89l88.94-11.26c3.38-.43,6.47,1.97,6.9,5.35l7.08,55.94c.43,3.38-1.97,6.47-5.35,6.9l-88.94,11.26c-3.38.43-6.47-1.97-6.9-5.35l-7.08-55.94Z"/>
          <path class="cls-9" d="M291.31,357.9c-.43-3.38,1.97-6.47,5.35-6.89l88.94-11.26c3.38-.43,6.47,1.97,6.9,5.35l7.08,55.94c.43,3.38-1.68,4.29-2.38,4.91l-47.11-21.78s-3.7-1.75-5.39-1.53c-2.47.31-5.02,2.7-5.02,2.7l-38.54,33.22c-.73-1.25-2.32-1.32-2.75-4.7l-7.08-55.94Z"/>
          <path class="cls-45" d="M291.31,357.9c-.43-3.38,1.97-6.47,5.35-6.89l88.94-11.26c3.38-.43,6.47,1.97,6.9,5.35l7.08,55.94c.43,3.38-1.2,4.43-2.02,5.38l-49.3-23.65s-1.33-2.26-3.03-2.04c-1.7.22-3.81,2.63-3.81,2.63l-40.44,35.34c-.97-.67-2.16-1.46-2.59-4.84l-7.08-55.94Z"/>
          <path class="cls-13" d="M291.31,357.9c-.43-3.38,1.97-6.47,5.35-6.89l88.94-11.26c3.38-.43,6.47,1.97,6.9,5.35l7.08,55.94c.43,3.38-1.2,4.43-2.02,5.38l-49.3-23.65s-1.33-2.26-3.03-2.04c-1.7.22-3.81,2.63-3.81,2.63l-40.44,35.34c-.97-.67-2.16-1.46-2.59-4.84l-7.08-55.94Z"/>
          <path class="cls-9" d="M297.58,352.52c-.6-1.46.85-1.37,4.23-1.8l77.29-9.17c3.39-.43,5.36.25,5.36.25-1.41,4.77-33.63,40.56-33.63,40.56,0,0-3.12,3.06-5.48,3.36-2.63.33-5.38-1.72-5.38-1.72,0,0-41.8-30.01-42.4-31.47Z"/>
          <path class="cls-45" d="M296.65,351l88.94-11.26c3.38-.43-35.78,42.27-35.78,42.27,0,0-2.52,2.5-4.27,2.72-1.95.25-4.67-1.31-4.67-1.31,0,0-47.6-31.98-44.22-32.41Z"/>
          <path class="cls-45" d="M296.65,351l88.94-11.26c3.38-.43-35.78,42.27-35.78,42.27,0,0-2.52,2.5-4.27,2.72-1.95.25-4.67-1.31-4.67-1.31,0,0-47.6-31.98-44.22-32.41Z"/>
        </g>
        <g>
          <g>
            <path class="cls-19" d="M182.04,73.44h0c1.91-4.21,2.45-8.75,1.25-13.15-3.29-12.06-18.39-18.44-33.72-14.25-15.34,4.19-25.1,17.35-21.81,29.41,3.29,12.06,18.39,18.44,33.73,14.25,2.06-.56,4.01-1.28,5.85-2.14l15.31-.72c-3.75-4.69-2.05-10.15-1.1-12.37.17-.34.34-.68.49-1.02Z"/>
            <path class="cls-41" d="M128.39,66.22c.75,2.75,3.58,4.36,6.33,3.61,2.75-.75,4.36-3.58,3.62-6.33-.75-2.75-3.58-4.36-6.33-3.61-2.75.75-4.36,3.58-3.61,6.33Z"/>
            <path class="cls-41" d="M151.53,69.02c.61,2.24,2.92,3.55,5.15,2.94,2.24-.61,3.56-2.92,2.94-5.15-.61-2.24-2.92-3.56-5.16-2.95-2.24.61-3.55,2.92-2.94,5.16Z"/>
            <path class="cls-41" d="M166.63,64.9c.61,2.24,2.92,3.55,5.16,2.94,2.24-.61,3.56-2.92,2.95-5.15-.61-2.24-2.92-3.56-5.16-2.95-2.24.61-3.55,2.92-2.94,5.16Z"/>
            <path class="cls-41" d="M166.63,64.9c.61,2.24,2.92,3.55,5.16,2.94,2.24-.61,3.56-2.92,2.95-5.15-.61-2.24-2.92-3.56-5.16-2.95-2.24.61-3.55,2.92-2.94,5.16Z"/>
            <path class="cls-43" d="M101.9,32.71c-21.67,5.92-35.47,24.53-30.82,41.56.76,2.8,1.98,5.37,3.57,7.71h-.02c.06.08.12.16.18.24.22.31.45.62.68.93,7.17,10.46.21,22.51.21,22.51,8.08-2.21,17.06-5.48,23.42-9.85,6.18.84,12.89.45,19.62-1.39,21.67-5.92,35.47-24.53,30.82-41.57-4.65-17.04-25.99-26.06-47.66-20.14Z"/>
            <path class="cls-41" d="M86.75,69.92c.75,2.75,3.58,4.36,6.33,3.61,2.75-.75,4.37-3.58,3.62-6.33-.75-2.75-3.58-4.36-6.33-3.61-2.74.75-4.36,3.58-3.61,6.33Z"/>
            <path class="cls-41" d="M105.42,64.99c.75,2.75,3.58,4.36,6.33,3.61,2.75-.75,4.36-3.58,3.61-6.33-.75-2.75-3.58-4.36-6.33-3.62-2.75.75-4.36,3.58-3.61,6.33Z"/>
            <path class="cls-41" d="M123.95,59.93c.75,2.75,3.58,4.36,6.33,3.61s4.36-3.58,3.61-6.33c-.75-2.75-3.58-4.36-6.33-3.61-2.75.75-4.36,3.58-3.62,6.33Z"/>
            <g class="cls-8">
              <path class="cls-52" d="M112.32,33.93c2.7,9.87,12.88,15.69,22.76,13,9.87-2.69,15.69-12.88,13-22.76-2.7-9.87-12.88-15.69-22.76-13-9.87,2.69-15.69,12.88-13,22.76Z"/>
            </g>
            <path class="cls-32" d="M110.1,30.47c2.69,9.87,12.88,15.69,22.76,13,9.87-2.69,15.69-12.88,13-22.76-2.7-9.87-12.88-15.69-22.76-13-9.87,2.69-15.69,12.88-13,22.76Z"/>
            <path class="cls-41" d="M126.51,26.74l-2.21-6.38c-.43-1.24-.72-2.14-.87-2.69-.21-.75-.17-1.39.11-1.92.28-.53.74-.88,1.38-1.05.78-.21,1.37-.08,1.78.38.41.47.75,1.21,1.03,2.22.16.6.3,1.21.4,1.84l1.24,6.84c.15.81.19,1.46.09,1.94-.09.48-.38.79-.86.92-.49.13-.88.02-1.19-.34-.3-.36-.61-.95-.92-1.77ZM130.45,35.25c-.55.15-1.08.1-1.59-.14-.51-.25-.85-.69-1.02-1.33-.15-.56-.09-1.09.2-1.59.29-.5.71-.83,1.28-.98.57-.16,1.11-.09,1.62.19.51.28.84.7.99,1.27.17.63.11,1.19-.2,1.66-.31.47-.73.78-1.27.93Z"/>
          </g>
          <path class="cls-32" d="M108.08,20.65c-.08.02-.18.03-.27.01l-4.57-.81c-.33-.06-.55-.38-.5-.71.06-.33.38-.55.71-.5l4.57.82c.33.06.56.38.5.71-.04.24-.22.42-.44.48Z"/>
          <path class="cls-32" d="M116.28,8.53c-.25.07-.52-.03-.67-.25l-1.71-2.55c-.19-.28-.11-.66.17-.85.28-.19.66-.11.85.17l1.71,2.55c.19.28.11.66-.17.85-.06.04-.12.07-.18.08Z"/>
          <path class="cls-32" d="M111.3,13.61c-.17.05-.36.02-.52-.1l-7.45-5.41c-.27-.2-.33-.58-.14-.86.2-.27.58-.33.85-.13l7.45,5.41c.27.2.34.58.14.86-.08.12-.2.19-.33.23Z"/>
          <path class="cls-32" d="M134.42,5.68c-.1.03-.21.03-.32,0-.33-.09-.52-.42-.43-.75l1.2-4.48c.09-.33.42-.52.75-.43.33.09.52.42.43.75l-1.21,4.48c-.06.22-.23.38-.43.43Z"/>
          <path class="cls-32" d="M145.79,14.89c-.27.07-.56-.04-.7-.29-.16-.3-.06-.67.24-.83l2.68-1.49c.3-.16.67-.06.83.24.16.3.06.67-.24.83l-2.68,1.49s-.09.04-.14.06Z"/>
          <path class="cls-32" d="M141.16,9.5c-.19.05-.4.01-.56-.13-.26-.22-.28-.61-.06-.86l6.03-6.96c.22-.25.61-.28.86-.06.26.22.28.61.06.86l-6.03,6.96c-.08.09-.19.16-.3.19Z"/>
        </g>
      </g>
    </g>
  </g>
</svg>